<svg xmlns="http://www.w3.org/2000/svg" version="1.1" xmlns:xlink="http://www.w3.org/1999/xlink" xmlns:svgjs="http://svgjs.dev/svgjs" width="1440" height="560" preserveAspectRatio="none" viewBox="0 0 1440 560"><g mask="url(&quot;#SvgjsMask1004&quot;)" fill="none"><rect width="1440" height="560" x="0" y="0" fill="#0e2a47"></rect><g mask="url(&quot;#SvgjsMask1005&quot;)"><path d="M199.5 66.5L161.5 66.5L104.5 9.5L9.5 9.5" stroke-width="3.17" stroke="#3a7cc3"></path><path d="M194.75 66.5 a4.75 4.75 0 1 0 9.5 0 a4.75 4.75 0 1 0 -9.5 0zM4.75 9.5 a4.75 4.75 0 1 0 9.5 0 a4.75 4.75 0 1 0 -9.5 0z" fill="#3a7cc3"></path><path d="M9.5 446.5L332.5 123.5L332.5 85.5" stroke-width="3.17" stroke="#3a7cc3"></path><path d="M4.75 446.5 a4.75 4.75 0 1 0 9.5 0 a4.75 4.75 0 1 0 -9.5 0zM327.75 85.5 a4.75 4.75 0 1 0 9.5 0 a4.75 4.75 0 1 0 -9.5 0z" fill="#3a7cc3"></path><path d="M313.5 351.5L218.5 351.5L9.5 560.5" stroke-width="3.17" stroke="#3a7cc3"></path><path d="M308.75 351.5 a4.75 4.75 0 1 0 9.5 0 a4.75 4.75 0 1 0 -9.5 0zM4.75 560.5 a4.75 4.75 0 1 0 9.5 0 a4.75 4.75 0 1 0 -9.5 0z" fill="#3a7cc3"></path><path d="M85.5 199.5L85.5 332.5L9.5 408.5L9.5 427.5" stroke-width="3.17" stroke="#3a7cc3"></path><path d="M80.75 199.5 a4.75 4.75 0 1 0 9.5 0 a4.75 4.75 0 1 0 -9.5 0zM4.75 427.5 a4.75 4.75 0 1 0 9.5 0 a4.75 4.75 0 1 0 -9.5 0z" fill="#3a7cc3"></path><path d="M1339.5 28.5L1358.5 9.5L1434.5 9.5" stroke-width="3.17" stroke="#3a7cc3"></path><path d="M1334.75 28.5 a4.75 4.75 0 1 0 9.5 0 a4.75 4.75 0 1 0 -9.5 0zM1429.75 9.5 a4.75 4.75 0 1 0 9.5 0 a4.75 4.75 0 1 0 -9.5 0z" fill="#3a7cc3"></path><path d="M85.5 47.5L66.5 28.5L9.5 28.5" stroke-width="3.17" stroke="#3a7cc3"></path><path d="M80.75 47.5 a4.75 4.75 0 1 0 9.5 0 a4.75 4.75 0 1 0 -9.5 0zM4.75 28.5 a4.75 4.75 0 1 0 9.5 0 a4.75 4.75 0 1 0 -9.5 0z" fill="#3a7cc3"></path><path d="M1263.5 408.5L1263.5 560.5" stroke-width="3.17" stroke="#3a7cc3"></path><path d="M1258.75 408.5 a4.75 4.75 0 1 0 9.5 0 a4.75 4.75 0 1 0 -9.5 0zM1258.75 560.5 a4.75 4.75 0 1 0 9.5 0 a4.75 4.75 0 1 0 -9.5 0z" fill="#3a7cc3"></path><path d="M1301.5 294.5L1111.5 104.5L1111.5 9.5" stroke-width="3.17" stroke="#3a7cc3"></path><path d="M1296.75 294.5 a4.75 4.75 0 1 0 9.5 0 a4.75 4.75 0 1 0 -9.5 0zM1106.75 9.5 a4.75 4.75 0 1 0 9.5 0 a4.75 4.75 0 1 0 -9.5 0z" fill="#3a7cc3"></path><path d="M541.5 484.5L750.5 484.5L807.5 541.5L826.5 541.5L883.5 484.5L883.5 465.5" stroke-width="3.17" stroke="#3a7cc3"></path><path d="M536.75 484.5 a4.75 4.75 0 1 0 9.5 0 a4.75 4.75 0 1 0 -9.5 0zM878.75 465.5 a4.75 4.75 0 1 0 9.5 0 a4.75 4.75 0 1 0 -9.5 0z" fill="#3a7cc3"></path><path d="M1206.5 370.5L1320.5 370.5L1396.5 446.5L1396.5 560.5" stroke-width="3.17" stroke="#3a7cc3"></path><path d="M1201.75 370.5 a4.75 4.75 0 1 0 9.5 0 a4.75 4.75 0 1 0 -9.5 0zM1391.75 560.5 a4.75 4.75 0 1 0 9.5 0 a4.75 4.75 0 1 0 -9.5 0z" fill="#3a7cc3"></path><path d="M1092.5 256.5L1168.5 180.5" stroke-width="3.17" stroke="#3a7cc3"></path><path d="M1087.75 256.5 a4.75 4.75 0 1 0 9.5 0 a4.75 4.75 0 1 0 -9.5 0zM1163.75 180.5 a4.75 4.75 0 1 0 9.5 0 a4.75 4.75 0 1 0 -9.5 0z" fill="#3a7cc3"></path><path d="M1130.5 484.5L1054.5 408.5L902.5 408.5L807.5 503.5L807.5 522.5" stroke-width="3.17" stroke="#3a7cc3"></path><path d="M1125.75 484.5 a4.75 4.75 0 1 0 9.5 0 a4.75 4.75 0 1 0 -9.5 0zM802.75 522.5 a4.75 4.75 0 1 0 9.5 0 a4.75 4.75 0 1 0 -9.5 0z" fill="#3a7cc3"></path><path d="M522.5 161.5L522.5 294.5L313.5 503.5L294.5 503.5" stroke-width="3.17" stroke="#3a7cc3"></path><path d="M517.75 161.5 a4.75 4.75 0 1 0 9.5 0 a4.75 4.75 0 1 0 -9.5 0zM289.75 503.5 a4.75 4.75 0 1 0 9.5 0 a4.75 4.75 0 1 0 -9.5 0z" fill="#3a7cc3"></path><path d="M1016.5 180.5L1073.5 237.5L1073.5 256.5L940.5 389.5L845.5 389.5L788.5 332.5" stroke-width="3.17" stroke="#3a7cc3"></path><path d="M1011.75 180.5 a4.75 4.75 0 1 0 9.5 0 a4.75 4.75 0 1 0 -9.5 0zM783.75 332.5 a4.75 4.75 0 1 0 9.5 0 a4.75 4.75 0 1 0 -9.5 0z" fill="#3a7cc3"></path><path d="M1187.5 313.5L1187.5 199.5" stroke-width="3.17" stroke="#3a7cc3"></path><path d="M1182.75 313.5 a4.75 4.75 0 1 0 9.5 0 a4.75 4.75 0 1 0 -9.5 0zM1182.75 199.5 a4.75 4.75 0 1 0 9.5 0 a4.75 4.75 0 1 0 -9.5 0z" fill="#3a7cc3"></path><path d="M1187.5 484.5L1244.5 541.5L1244.5 560.5" stroke-width="3.17" stroke="#3a7cc3"></path><path d="M1182.75 484.5 a4.75 4.75 0 1 0 9.5 0 a4.75 4.75 0 1 0 -9.5 0zM1239.75 560.5 a4.75 4.75 0 1 0 9.5 0 a4.75 4.75 0 1 0 -9.5 0z" fill="#3a7cc3"></path><path d="M503.5 104.5L465.5 142.5L465.5 161.5L503.5 199.5L503.5 294.5L332.5 465.5" stroke-width="3.17" stroke="#3a7cc3"></path><path d="M498.75 104.5 a4.75 4.75 0 1 0 9.5 0 a4.75 4.75 0 1 0 -9.5 0zM327.75 465.5 a4.75 4.75 0 1 0 9.5 0 a4.75 4.75 0 1 0 -9.5 0z" fill="#3a7cc3"></path><path d="M408.5 446.5L370.5 484.5L370.5 560.5" stroke-width="3.17" stroke="#3a7cc3"></path><path d="M403.75 446.5 a4.75 4.75 0 1 0 9.5 0 a4.75 4.75 0 1 0 -9.5 0zM365.75 560.5 a4.75 4.75 0 1 0 9.5 0 a4.75 4.75 0 1 0 -9.5 0z" fill="#3a7cc3"></path><path d="M256.5 465.5L256.5 370.5" stroke-width="3.17" stroke="#3a7cc3"></path><path d="M251.75 465.5 a4.75 4.75 0 1 0 9.5 0 a4.75 4.75 0 1 0 -9.5 0zM251.75 370.5 a4.75 4.75 0 1 0 9.5 0 a4.75 4.75 0 1 0 -9.5 0z" fill="#3a7cc3"></path><path d="M1320.5 522.5L1320.5 560.5" stroke-width="3.17" stroke="#3a7cc3"></path><path d="M1315.75 522.5 a4.75 4.75 0 1 0 9.5 0 a4.75 4.75 0 1 0 -9.5 0zM1315.75 560.5 a4.75 4.75 0 1 0 9.5 0 a4.75 4.75 0 1 0 -9.5 0z" fill="#3a7cc3"></path><path d="M921.5 484.5L1035.5 484.5L1073.5 446.5" stroke-width="3.17" stroke="#3a7cc3"></path><path d="M916.75 484.5 a4.75 4.75 0 1 0 9.5 0 a4.75 4.75 0 1 0 -9.5 0zM1068.75 446.5 a4.75 4.75 0 1 0 9.5 0 a4.75 4.75 0 1 0 -9.5 0z" fill="#3a7cc3"></path><path d="M921.5 351.5L902.5 351.5L883.5 332.5L807.5 332.5L598.5 123.5L598.5 85.5" stroke-width="3.17" stroke="#3a7cc3"></path><path d="M916.75 351.5 a4.75 4.75 0 1 0 9.5 0 a4.75 4.75 0 1 0 -9.5 0zM593.75 85.5 a4.75 4.75 0 1 0 9.5 0 a4.75 4.75 0 1 0 -9.5 0z" fill="#3a7cc3"></path><path d="M408.5 47.5L351.5 104.5L351.5 180.5L446.5 275.5L446.5 332.5L370.5 408.5" stroke-width="3.17" stroke="#3a7cc3"></path><path d="M403.75 47.5 a4.75 4.75 0 1 0 9.5 0 a4.75 4.75 0 1 0 -9.5 0zM365.75 408.5 a4.75 4.75 0 1 0 9.5 0 a4.75 4.75 0 1 0 -9.5 0z" fill="#3a7cc3"></path><path d="M104.5 161.5L180.5 237.5L199.5 237.5L313.5 123.5L313.5 9.5" stroke-width="3.17" stroke="#3a7cc3"></path><path d="M99.75 161.5 a4.75 4.75 0 1 0 9.5 0 a4.75 4.75 0 1 0 -9.5 0zM308.75 9.5 a4.75 4.75 0 1 0 9.5 0 a4.75 4.75 0 1 0 -9.5 0z" fill="#3a7cc3"></path><path d="M712.5 218.5L731.5 237.5L1054.5 237.5" stroke-width="3.17" stroke="#3a7cc3"></path><path d="M707.75 218.5 a4.75 4.75 0 1 0 9.5 0 a4.75 4.75 0 1 0 -9.5 0zM1049.75 237.5 a4.75 4.75 0 1 0 9.5 0 a4.75 4.75 0 1 0 -9.5 0z" fill="#3a7cc3"></path><path d="M1415.5 142.5L1282.5 142.5L1225.5 199.5" stroke-width="3.17" stroke="#3a7cc3"></path><path d="M1410.75 142.5 a4.75 4.75 0 1 0 9.5 0 a4.75 4.75 0 1 0 -9.5 0zM1220.75 199.5 a4.75 4.75 0 1 0 9.5 0 a4.75 4.75 0 1 0 -9.5 0z" fill="#3a7cc3"></path><path d="M1282.5 180.5L1263.5 180.5L1244.5 199.5L1244.5 218.5L1339.5 313.5L1339.5 370.5L1377.5 408.5L1434.5 408.5" stroke-width="3.17" stroke="#3a7cc3"></path><path d="M1277.75 180.5 a4.75 4.75 0 1 0 9.5 0 a4.75 4.75 0 1 0 -9.5 0zM1429.75 408.5 a4.75 4.75 0 1 0 9.5 0 a4.75 4.75 0 1 0 -9.5 0z" fill="#3a7cc3"></path><path d="M28.5 503.5L28.5 522.5L9.5 541.5" stroke-width="3.17" stroke="#3a7cc3"></path><path d="M23.75 503.5 a4.75 4.75 0 1 0 9.5 0 a4.75 4.75 0 1 0 -9.5 0zM4.75 541.5 a4.75 4.75 0 1 0 9.5 0 a4.75 4.75 0 1 0 -9.5 0z" fill="#3a7cc3"></path><path d="M617.5 465.5L693.5 389.5L693.5 332.5L655.5 294.5L655.5 199.5L560.5 104.5" stroke-width="3.17" stroke="#3a7cc3"></path><path d="M612.75 465.5 a4.75 4.75 0 1 0 9.5 0 a4.75 4.75 0 1 0 -9.5 0zM555.75 104.5 a4.75 4.75 0 1 0 9.5 0 a4.75 4.75 0 1 0 -9.5 0z" fill="#3a7cc3"></path><path d="M142.5 104.5L199.5 161.5L256.5 161.5L294.5 123.5L294.5 9.5" stroke-width="3.17" stroke="#3a7cc3"></path><path d="M137.75 104.5 a4.75 4.75 0 1 0 9.5 0 a4.75 4.75 0 1 0 -9.5 0zM289.75 9.5 a4.75 4.75 0 1 0 9.5 0 a4.75 4.75 0 1 0 -9.5 0z" fill="#3a7cc3"></path><path d="M1282.5 104.5L1301.5 123.5L1434.5 123.5" stroke-width="3.17" stroke="#3a7cc3"></path><path d="M1277.75 104.5 a4.75 4.75 0 1 0 9.5 0 a4.75 4.75 0 1 0 -9.5 0zM1429.75 123.5 a4.75 4.75 0 1 0 9.5 0 a4.75 4.75 0 1 0 -9.5 0z" fill="#3a7cc3"></path><path d="M1035.5 104.5L1073.5 66.5L1073.5 9.5" stroke-width="3.17" stroke="#3a7cc3"></path><path d="M1030.75 104.5 a4.75 4.75 0 1 0 9.5 0 a4.75 4.75 0 1 0 -9.5 0zM1068.75 9.5 a4.75 4.75 0 1 0 9.5 0 a4.75 4.75 0 1 0 -9.5 0z" fill="#3a7cc3"></path><path d="M1016.5 142.5L921.5 142.5L845.5 218.5L788.5 218.5L655.5 85.5" stroke-width="3.17" stroke="#3a7cc3"></path><path d="M1011.75 142.5 a4.75 4.75 0 1 0 9.5 0 a4.75 4.75 0 1 0 -9.5 0zM650.75 85.5 a4.75 4.75 0 1 0 9.5 0 a4.75 4.75 0 1 0 -9.5 0z" fill="#3a7cc3"></path><path d="M332.5 9.5L332.5 66.5L351.5 85.5" stroke-width="3.17" stroke="#3a7cc3"></path><path d="M327.75 9.5 a4.75 4.75 0 1 0 9.5 0 a4.75 4.75 0 1 0 -9.5 0zM346.75 85.5 a4.75 4.75 0 1 0 9.5 0 a4.75 4.75 0 1 0 -9.5 0z" fill="#3a7cc3"></path><path d="M1358.5 370.5L1434.5 370.5" stroke-width="3.17" stroke="#3a7cc3"></path><path d="M1353.75 370.5 a4.75 4.75 0 1 0 9.5 0 a4.75 4.75 0 1 0 -9.5 0zM1429.75 370.5 a4.75 4.75 0 1 0 9.5 0 a4.75 4.75 0 1 0 -9.5 0z" fill="#3a7cc3"></path><path d="M142.5 237.5L161.5 237.5L180.5 256.5" stroke-width="3.17" stroke="#3a7cc3"></path><path d="M137.75 237.5 a4.75 4.75 0 1 0 9.5 0 a4.75 4.75 0 1 0 -9.5 0zM175.75 256.5 a4.75 4.75 0 1 0 9.5 0 a4.75 4.75 0 1 0 -9.5 0z" fill="#3a7cc3"></path><path d="M1149.5 237.5L1035.5 351.5L1035.5 389.5" stroke-width="3.17" stroke="#3a7cc3"></path><path d="M1144.75 237.5 a4.75 4.75 0 1 0 9.5 0 a4.75 4.75 0 1 0 -9.5 0zM1030.75 389.5 a4.75 4.75 0 1 0 9.5 0 a4.75 4.75 0 1 0 -9.5 0z" fill="#3a7cc3"></path><path d="M180.5 85.5L180.5 123.5L199.5 142.5L256.5 142.5L275.5 123.5L275.5 85.5L199.5 9.5L123.5 9.5" stroke-width="3.17" stroke="#3a7cc3"></path><path d="M175.75 85.5 a4.75 4.75 0 1 0 9.5 0 a4.75 4.75 0 1 0 -9.5 0zM118.75 9.5 a4.75 4.75 0 1 0 9.5 0 a4.75 4.75 0 1 0 -9.5 0z" fill="#3a7cc3"></path><path d="M275.5 199.5L332.5 142.5" stroke-width="3.17" stroke="#3a7cc3"></path><path d="M270.75 199.5 a4.75 4.75 0 1 0 9.5 0 a4.75 4.75 0 1 0 -9.5 0zM327.75 142.5 a4.75 4.75 0 1 0 9.5 0 a4.75 4.75 0 1 0 -9.5 0z" fill="#3a7cc3"></path><path d="M636.5 275.5L636.5 199.5L446.5 9.5L351.5 9.5" stroke-width="3.17" stroke="#3a7cc3"></path><path d="M631.75 275.5 a4.75 4.75 0 1 0 9.5 0 a4.75 4.75 0 1 0 -9.5 0zM346.75 9.5 a4.75 4.75 0 1 0 9.5 0 a4.75 4.75 0 1 0 -9.5 0z" fill="#3a7cc3"></path><path d="M579.5 275.5L617.5 275.5L674.5 332.5L674.5 389.5L598.5 465.5L465.5 465.5" stroke-width="3.17" stroke="#3a7cc3"></path><path d="M574.75 275.5 a4.75 4.75 0 1 0 9.5 0 a4.75 4.75 0 1 0 -9.5 0zM460.75 465.5 a4.75 4.75 0 1 0 9.5 0 a4.75 4.75 0 1 0 -9.5 0z" fill="#3a7cc3"></path><path d="M541.5 541.5L522.5 560.5L389.5 560.5" stroke-width="3.17" stroke="#3a7cc3"></path><path d="M536.75 541.5 a4.75 4.75 0 1 0 9.5 0 a4.75 4.75 0 1 0 -9.5 0zM384.75 560.5 a4.75 4.75 0 1 0 9.5 0 a4.75 4.75 0 1 0 -9.5 0z" fill="#3a7cc3"></path><path d="M1301.5 408.5L1282.5 389.5L1206.5 389.5L1187.5 408.5L1187.5 465.5L1244.5 522.5" stroke-width="3.17" stroke="#3a7cc3"></path><path d="M1296.75 408.5 a4.75 4.75 0 1 0 9.5 0 a4.75 4.75 0 1 0 -9.5 0zM1239.75 522.5 a4.75 4.75 0 1 0 9.5 0 a4.75 4.75 0 1 0 -9.5 0z" fill="#3a7cc3"></path><path d="M769.5 408.5L788.5 427.5L864.5 427.5L883.5 408.5" stroke-width="3.17" stroke="#3a7cc3"></path><path d="M764.75 408.5 a4.75 4.75 0 1 0 9.5 0 a4.75 4.75 0 1 0 -9.5 0zM878.75 408.5 a4.75 4.75 0 1 0 9.5 0 a4.75 4.75 0 1 0 -9.5 0z" fill="#3a7cc3"></path><path d="M1320.5 275.5L1263.5 218.5L1263.5 199.5" stroke-width="3.17" stroke="#3a7cc3"></path><path d="M1315.75 275.5 a4.75 4.75 0 1 0 9.5 0 a4.75 4.75 0 1 0 -9.5 0zM1258.75 199.5 a4.75 4.75 0 1 0 9.5 0 a4.75 4.75 0 1 0 -9.5 0z" fill="#3a7cc3"></path><path d="M1073.5 104.5L1149.5 180.5" stroke-width="3.17" stroke="#3a7cc3"></path><path d="M1068.75 104.5 a4.75 4.75 0 1 0 9.5 0 a4.75 4.75 0 1 0 -9.5 0zM1144.75 180.5 a4.75 4.75 0 1 0 9.5 0 a4.75 4.75 0 1 0 -9.5 0z" fill="#3a7cc3"></path><path d="M712.5 313.5L693.5 313.5L674.5 294.5L674.5 218.5" stroke-width="3.17" stroke="#3a7cc3"></path><path d="M707.75 313.5 a4.75 4.75 0 1 0 9.5 0 a4.75 4.75 0 1 0 -9.5 0zM669.75 218.5 a4.75 4.75 0 1 0 9.5 0 a4.75 4.75 0 1 0 -9.5 0z" fill="#3a7cc3"></path><path d="M693.5 465.5L826.5 465.5L845.5 446.5" stroke-width="3.17" stroke="#3a7cc3"></path><path d="M688.75 465.5 a4.75 4.75 0 1 0 9.5 0 a4.75 4.75 0 1 0 -9.5 0zM840.75 446.5 a4.75 4.75 0 1 0 9.5 0 a4.75 4.75 0 1 0 -9.5 0z" fill="#3a7cc3"></path><path d="M1225.5 351.5L1263.5 351.5L1301.5 313.5L1320.5 313.5" stroke-width="3.17" stroke="#3a7cc3"></path><path d="M1220.75 351.5 a4.75 4.75 0 1 0 9.5 0 a4.75 4.75 0 1 0 -9.5 0zM1315.75 313.5 a4.75 4.75 0 1 0 9.5 0 a4.75 4.75 0 1 0 -9.5 0z" fill="#3a7cc3"></path><path d="M655.5 123.5L579.5 47.5L503.5 47.5L484.5 28.5L484.5 9.5" stroke-width="3.17" stroke="#3a7cc3"></path><path d="M650.75 123.5 a4.75 4.75 0 1 0 9.5 0 a4.75 4.75 0 1 0 -9.5 0zM479.75 9.5 a4.75 4.75 0 1 0 9.5 0 a4.75 4.75 0 1 0 -9.5 0z" fill="#3a7cc3"></path><path d="M1225.5 47.5L1187.5 9.5L1130.5 9.5" stroke-width="3.17" stroke="#3a7cc3"></path><path d="M1220.75 47.5 a4.75 4.75 0 1 0 9.5 0 a4.75 4.75 0 1 0 -9.5 0zM1125.75 9.5 a4.75 4.75 0 1 0 9.5 0 a4.75 4.75 0 1 0 -9.5 0z" fill="#3a7cc3"></path><path d="M712.5 66.5L617.5 66.5L560.5 9.5L503.5 9.5" stroke-width="3.17" stroke="#3a7cc3"></path><path d="M707.75 66.5 a4.75 4.75 0 1 0 9.5 0 a4.75 4.75 0 1 0 -9.5 0zM498.75 9.5 a4.75 4.75 0 1 0 9.5 0 a4.75 4.75 0 1 0 -9.5 0z" fill="#3a7cc3"></path><path d="M731.5 427.5L712.5 408.5L712.5 332.5L750.5 294.5" stroke-width="3.17" stroke="#3a7cc3"></path><path d="M726.75 427.5 a4.75 4.75 0 1 0 9.5 0 a4.75 4.75 0 1 0 -9.5 0zM745.75 294.5 a4.75 4.75 0 1 0 9.5 0 a4.75 4.75 0 1 0 -9.5 0z" fill="#3a7cc3"></path><path d="M978.5 465.5L959.5 446.5L959.5 427.5" stroke-width="3.17" stroke="#3a7cc3"></path><path d="M973.75 465.5 a4.75 4.75 0 1 0 9.5 0 a4.75 4.75 0 1 0 -9.5 0zM954.75 427.5 a4.75 4.75 0 1 0 9.5 0 a4.75 4.75 0 1 0 -9.5 0z" fill="#3a7cc3"></path><path d="M1035.5 465.5L997.5 465.5L978.5 446.5L978.5 427.5" stroke-width="3.17" stroke="#3a7cc3"></path><path d="M1030.75 465.5 a4.75 4.75 0 1 0 9.5 0 a4.75 4.75 0 1 0 -9.5 0zM973.75 427.5 a4.75 4.75 0 1 0 9.5 0 a4.75 4.75 0 1 0 -9.5 0z" fill="#3a7cc3"></path><path d="M66.5 446.5L28.5 484.5L9.5 484.5" stroke-width="3.17" stroke="#3a7cc3"></path><path d="M61.75 446.5 a4.75 4.75 0 1 0 9.5 0 a4.75 4.75 0 1 0 -9.5 0zM4.75 484.5 a4.75 4.75 0 1 0 9.5 0 a4.75 4.75 0 1 0 -9.5 0z" fill="#3a7cc3"></path><path d="M1396.5 332.5L1377.5 351.5L1358.5 351.5" stroke-width="3.17" stroke="#3a7cc3"></path><path d="M1391.75 332.5 a4.75 4.75 0 1 0 9.5 0 a4.75 4.75 0 1 0 -9.5 0zM1353.75 351.5 a4.75 4.75 0 1 0 9.5 0 a4.75 4.75 0 1 0 -9.5 0z" fill="#3a7cc3"></path><path d="M826.5 351.5L883.5 351.5L902.5 370.5L940.5 370.5L1054.5 256.5" stroke-width="3.17" stroke="#3a7cc3"></path><path d="M821.75 351.5 a4.75 4.75 0 1 0 9.5 0 a4.75 4.75 0 1 0 -9.5 0zM1049.75 256.5 a4.75 4.75 0 1 0 9.5 0 a4.75 4.75 0 1 0 -9.5 0z" fill="#3a7cc3"></path><path d="M579.5 294.5L389.5 484.5L389.5 541.5" stroke-width="3.17" stroke="#3a7cc3"></path><path d="M574.75 294.5 a4.75 4.75 0 1 0 9.5 0 a4.75 4.75 0 1 0 -9.5 0zM384.75 541.5 a4.75 4.75 0 1 0 9.5 0 a4.75 4.75 0 1 0 -9.5 0z" fill="#3a7cc3"></path><path d="M807.5 199.5L788.5 199.5L693.5 104.5L693.5 85.5" stroke-width="3.17" stroke="#3a7cc3"></path><path d="M802.75 199.5 a4.75 4.75 0 1 0 9.5 0 a4.75 4.75 0 1 0 -9.5 0zM688.75 85.5 a4.75 4.75 0 1 0 9.5 0 a4.75 4.75 0 1 0 -9.5 0z" fill="#3a7cc3"></path><path d="M161.5 389.5L161.5 313.5L256.5 218.5L313.5 218.5L427.5 332.5" stroke-width="3.17" stroke="#3a7cc3"></path><path d="M156.75 389.5 a4.75 4.75 0 1 0 9.5 0 a4.75 4.75 0 1 0 -9.5 0zM422.75 332.5 a4.75 4.75 0 1 0 9.5 0 a4.75 4.75 0 1 0 -9.5 0z" fill="#3a7cc3"></path><path d="M85.5 427.5L123.5 427.5L142.5 408.5L142.5 332.5" stroke-width="3.17" stroke="#3a7cc3"></path><path d="M80.75 427.5 a4.75 4.75 0 1 0 9.5 0 a4.75 4.75 0 1 0 -9.5 0zM137.75 332.5 a4.75 4.75 0 1 0 9.5 0 a4.75 4.75 0 1 0 -9.5 0z" fill="#3a7cc3"></path><path d="M902.5 47.5L902.5 66.5L940.5 104.5L1016.5 104.5L1111.5 199.5L1111.5 218.5L1092.5 237.5" stroke-width="3.17" stroke="#3a7cc3"></path><path d="M897.75 47.5 a4.75 4.75 0 1 0 9.5 0 a4.75 4.75 0 1 0 -9.5 0zM1087.75 237.5 a4.75 4.75 0 1 0 9.5 0 a4.75 4.75 0 1 0 -9.5 0z" fill="#3a7cc3"></path><path d="M1225.5 85.5L1434.5 85.5" stroke-width="3.17" stroke="#3a7cc3"></path><path d="M1220.75 85.5 a4.75 4.75 0 1 0 9.5 0 a4.75 4.75 0 1 0 -9.5 0zM1429.75 85.5 a4.75 4.75 0 1 0 9.5 0 a4.75 4.75 0 1 0 -9.5 0z" fill="#3a7cc3"></path><path d="M1206.5 408.5L1206.5 465.5L1244.5 503.5" stroke-width="3.17" stroke="#3a7cc3"></path><path d="M1201.75 408.5 a4.75 4.75 0 1 0 9.5 0 a4.75 4.75 0 1 0 -9.5 0zM1239.75 503.5 a4.75 4.75 0 1 0 9.5 0 a4.75 4.75 0 1 0 -9.5 0z" fill="#3a7cc3"></path><path d="M389.5 313.5L313.5 237.5L256.5 237.5L180.5 313.5L180.5 370.5" stroke-width="3.17" stroke="#3a7cc3"></path><path d="M384.75 313.5 a4.75 4.75 0 1 0 9.5 0 a4.75 4.75 0 1 0 -9.5 0zM175.75 370.5 a4.75 4.75 0 1 0 9.5 0 a4.75 4.75 0 1 0 -9.5 0z" fill="#3a7cc3"></path><path d="M1016.5 427.5L1035.5 446.5L1054.5 446.5" stroke-width="3.17" stroke="#3a7cc3"></path><path d="M1011.75 427.5 a4.75 4.75 0 1 0 9.5 0 a4.75 4.75 0 1 0 -9.5 0zM1049.75 446.5 a4.75 4.75 0 1 0 9.5 0 a4.75 4.75 0 1 0 -9.5 0z" fill="#3a7cc3"></path><path d="M1434.5 28.5L1358.5 28.5L1320.5 66.5L1130.5 66.5" stroke-width="3.17" stroke="#3a7cc3"></path><path d="M1429.75 28.5 a4.75 4.75 0 1 0 9.5 0 a4.75 4.75 0 1 0 -9.5 0zM1125.75 66.5 a4.75 4.75 0 1 0 9.5 0 a4.75 4.75 0 1 0 -9.5 0z" fill="#3a7cc3"></path><path d="M1016.5 9.5L1054.5 9.5" stroke-width="3.17" stroke="#3a7cc3"></path><path d="M1011.75 9.5 a4.75 4.75 0 1 0 9.5 0 a4.75 4.75 0 1 0 -9.5 0zM1049.75 9.5 a4.75 4.75 0 1 0 9.5 0 a4.75 4.75 0 1 0 -9.5 0z" fill="#3a7cc3"></path><path d="M712.5 47.5L883.5 47.5L921.5 9.5L997.5 9.5L1054.5 66.5" stroke-width="3.17" stroke="#3a7cc3"></path><path d="M707.75 47.5 a4.75 4.75 0 1 0 9.5 0 a4.75 4.75 0 1 0 -9.5 0zM1049.75 66.5 a4.75 4.75 0 1 0 9.5 0 a4.75 4.75 0 1 0 -9.5 0z" fill="#3a7cc3"></path><path d="M598.5 541.5L598.5 503.5" stroke-width="3.17" stroke="#3a7cc3"></path><path d="M593.75 541.5 a4.75 4.75 0 1 0 9.5 0 a4.75 4.75 0 1 0 -9.5 0zM593.75 503.5 a4.75 4.75 0 1 0 9.5 0 a4.75 4.75 0 1 0 -9.5 0z" fill="#3a7cc3"></path><path d="M123.5 503.5L180.5 560.5L256.5 560.5L294.5 522.5L313.5 522.5L351.5 560.5" stroke-width="3.17" stroke="#3a7cc3"></path><path d="M118.75 503.5 a4.75 4.75 0 1 0 9.5 0 a4.75 4.75 0 1 0 -9.5 0zM346.75 560.5 a4.75 4.75 0 1 0 9.5 0 a4.75 4.75 0 1 0 -9.5 0z" fill="#3a7cc3"></path><path d="M313.5 446.5L408.5 351.5L408.5 332.5" stroke-width="3.17" stroke="#3a7cc3"></path><path d="M308.75 446.5 a4.75 4.75 0 1 0 9.5 0 a4.75 4.75 0 1 0 -9.5 0zM403.75 332.5 a4.75 4.75 0 1 0 9.5 0 a4.75 4.75 0 1 0 -9.5 0z" fill="#3a7cc3"></path><path d="M237.5 66.5L256.5 85.5L256.5 123.5" stroke-width="3.17" stroke="#3a7cc3"></path><path d="M232.75 66.5 a4.75 4.75 0 1 0 9.5 0 a4.75 4.75 0 1 0 -9.5 0zM251.75 123.5 a4.75 4.75 0 1 0 9.5 0 a4.75 4.75 0 1 0 -9.5 0z" fill="#3a7cc3"></path><path d="M1035.5 142.5L1092.5 199.5L1092.5 218.5" stroke-width="3.17" stroke="#3a7cc3"></path><path d="M1030.75 142.5 a4.75 4.75 0 1 0 9.5 0 a4.75 4.75 0 1 0 -9.5 0zM1087.75 218.5 a4.75 4.75 0 1 0 9.5 0 a4.75 4.75 0 1 0 -9.5 0z" fill="#3a7cc3"></path><path d="M1111.5 484.5L1130.5 503.5L1187.5 503.5L1225.5 541.5L1225.5 560.5" stroke-width="3.17" stroke="#3a7cc3"></path><path d="M1106.75 484.5 a4.75 4.75 0 1 0 9.5 0 a4.75 4.75 0 1 0 -9.5 0zM1220.75 560.5 a4.75 4.75 0 1 0 9.5 0 a4.75 4.75 0 1 0 -9.5 0z" fill="#3a7cc3"></path><path d="M579.5 332.5L655.5 332.5" stroke-width="3.17" stroke="#3a7cc3"></path><path d="M574.75 332.5 a4.75 4.75 0 1 0 9.5 0 a4.75 4.75 0 1 0 -9.5 0zM650.75 332.5 a4.75 4.75 0 1 0 9.5 0 a4.75 4.75 0 1 0 -9.5 0z" fill="#3a7cc3"></path><path d="M1092.5 503.5L1092.5 465.5" stroke-width="3.17" stroke="#3a7cc3"></path><path d="M1087.75 503.5 a4.75 4.75 0 1 0 9.5 0 a4.75 4.75 0 1 0 -9.5 0zM1087.75 465.5 a4.75 4.75 0 1 0 9.5 0 a4.75 4.75 0 1 0 -9.5 0z" fill="#3a7cc3"></path><path d="M104.5 28.5L161.5 85.5L161.5 104.5" stroke-width="3.17" stroke="#3a7cc3"></path><path d="M99.75 28.5 a4.75 4.75 0 1 0 9.5 0 a4.75 4.75 0 1 0 -9.5 0zM156.75 104.5 a4.75 4.75 0 1 0 9.5 0 a4.75 4.75 0 1 0 -9.5 0z" fill="#3a7cc3"></path><path d="M541.5 180.5L541.5 313.5L427.5 427.5L408.5 427.5" stroke-width="3.17" stroke="#3a7cc3"></path><path d="M536.75 180.5 a4.75 4.75 0 1 0 9.5 0 a4.75 4.75 0 1 0 -9.5 0zM403.75 427.5 a4.75 4.75 0 1 0 9.5 0 a4.75 4.75 0 1 0 -9.5 0z" fill="#3a7cc3"></path><path d="M883.5 218.5L883.5 199.5L921.5 161.5L1035.5 161.5L1073.5 199.5L1073.5 218.5" stroke-width="3.17" stroke="#3a7cc3"></path><path d="M878.75 218.5 a4.75 4.75 0 1 0 9.5 0 a4.75 4.75 0 1 0 -9.5 0zM1068.75 218.5 a4.75 4.75 0 1 0 9.5 0 a4.75 4.75 0 1 0 -9.5 0z" fill="#3a7cc3"></path><path d="M180.5 28.5L237.5 85.5L237.5 123.5" stroke-width="3.17" stroke="#3a7cc3"></path><path d="M175.75 28.5 a4.75 4.75 0 1 0 9.5 0 a4.75 4.75 0 1 0 -9.5 0zM232.75 123.5 a4.75 4.75 0 1 0 9.5 0 a4.75 4.75 0 1 0 -9.5 0z" fill="#3a7cc3"></path><path d="M1301.5 465.5L1282.5 446.5L1282.5 408.5" stroke-width="3.17" stroke="#3a7cc3"></path><path d="M1296.75 465.5 a4.75 4.75 0 1 0 9.5 0 a4.75 4.75 0 1 0 -9.5 0zM1277.75 408.5 a4.75 4.75 0 1 0 9.5 0 a4.75 4.75 0 1 0 -9.5 0z" fill="#3a7cc3"></path><path d="M1339.5 484.5L1339.5 560.5" stroke-width="3.17" stroke="#3a7cc3"></path><path d="M1334.75 484.5 a4.75 4.75 0 1 0 9.5 0 a4.75 4.75 0 1 0 -9.5 0zM1334.75 560.5 a4.75 4.75 0 1 0 9.5 0 a4.75 4.75 0 1 0 -9.5 0z" fill="#3a7cc3"></path><path d="M940.5 123.5L1016.5 123.5" stroke-width="3.17" stroke="#3a7cc3"></path><path d="M935.75 123.5 a4.75 4.75 0 1 0 9.5 0 a4.75 4.75 0 1 0 -9.5 0zM1011.75 123.5 a4.75 4.75 0 1 0 9.5 0 a4.75 4.75 0 1 0 -9.5 0z" fill="#3a7cc3"></path><path d="M370.5 351.5L332.5 351.5L256.5 275.5L237.5 275.5L218.5 294.5L218.5 332.5L199.5 351.5" stroke-width="3.17" stroke="#3a7cc3"></path><path d="M365.75 351.5 a4.75 4.75 0 1 0 9.5 0 a4.75 4.75 0 1 0 -9.5 0zM194.75 351.5 a4.75 4.75 0 1 0 9.5 0 a4.75 4.75 0 1 0 -9.5 0z" fill="#3a7cc3"></path><path d="M1434.5 218.5L1377.5 161.5L1339.5 161.5L1282.5 218.5" stroke-width="3.17" stroke="#3a7cc3"></path><path d="M1429.75 218.5 a4.75 4.75 0 1 0 9.5 0 a4.75 4.75 0 1 0 -9.5 0zM1277.75 218.5 a4.75 4.75 0 1 0 9.5 0 a4.75 4.75 0 1 0 -9.5 0z" fill="#3a7cc3"></path><path d="M47.5 47.5L47.5 351.5L9.5 389.5" stroke-width="3.17" stroke="#3a7cc3"></path><path d="M42.75 47.5 a4.75 4.75 0 1 0 9.5 0 a4.75 4.75 0 1 0 -9.5 0zM4.75 389.5 a4.75 4.75 0 1 0 9.5 0 a4.75 4.75 0 1 0 -9.5 0z" fill="#3a7cc3"></path><path d="M1301.5 9.5L1301.5 47.5" stroke-width="3.17" stroke="#3a7cc3"></path><path d="M1296.75 9.5 a4.75 4.75 0 1 0 9.5 0 a4.75 4.75 0 1 0 -9.5 0zM1296.75 47.5 a4.75 4.75 0 1 0 9.5 0 a4.75 4.75 0 1 0 -9.5 0z" fill="#3a7cc3"></path><path d="M1130.5 180.5L1054.5 104.5" stroke-width="3.17" stroke="#3a7cc3"></path><path d="M1125.75 180.5 a4.75 4.75 0 1 0 9.5 0 a4.75 4.75 0 1 0 -9.5 0zM1049.75 104.5 a4.75 4.75 0 1 0 9.5 0 a4.75 4.75 0 1 0 -9.5 0z" fill="#3a7cc3"></path><path d="M123.5 161.5L180.5 218.5L199.5 218.5L237.5 180.5" stroke-width="3.17" stroke="#3a7cc3"></path><path d="M118.75 161.5 a4.75 4.75 0 1 0 9.5 0 a4.75 4.75 0 1 0 -9.5 0zM232.75 180.5 a4.75 4.75 0 1 0 9.5 0 a4.75 4.75 0 1 0 -9.5 0z" fill="#3a7cc3"></path><path d="M655.5 351.5L579.5 351.5L484.5 446.5L446.5 446.5L408.5 484.5L408.5 503.5L446.5 541.5L503.5 541.5" stroke-width="3.17" stroke="#3a7cc3"></path><path d="M650.75 351.5 a4.75 4.75 0 1 0 9.5 0 a4.75 4.75 0 1 0 -9.5 0zM498.75 541.5 a4.75 4.75 0 1 0 9.5 0 a4.75 4.75 0 1 0 -9.5 0z" fill="#3a7cc3"></path><path d="M712.5 446.5L655.5 446.5L636.5 465.5" stroke-width="3.17" stroke="#3a7cc3"></path><path d="M707.75 446.5 a4.75 4.75 0 1 0 9.5 0 a4.75 4.75 0 1 0 -9.5 0zM631.75 465.5 a4.75 4.75 0 1 0 9.5 0 a4.75 4.75 0 1 0 -9.5 0z" fill="#3a7cc3"></path><path d="M389.5 275.5L427.5 275.5" stroke-width="3.17" stroke="#3a7cc3"></path><path d="M384.75 275.5 a4.75 4.75 0 1 0 9.5 0 a4.75 4.75 0 1 0 -9.5 0zM422.75 275.5 a4.75 4.75 0 1 0 9.5 0 a4.75 4.75 0 1 0 -9.5 0z" fill="#3a7cc3"></path><path d="M636.5 541.5L655.5 541.5L674.5 522.5L674.5 503.5" stroke-width="3.17" stroke="#3a7cc3"></path><path d="M631.75 541.5 a4.75 4.75 0 1 0 9.5 0 a4.75 4.75 0 1 0 -9.5 0zM669.75 503.5 a4.75 4.75 0 1 0 9.5 0 a4.75 4.75 0 1 0 -9.5 0z" fill="#3a7cc3"></path><path d="M275.5 560.5L294.5 541.5L313.5 541.5L332.5 560.5" stroke-width="3.17" stroke="#3a7cc3"></path><path d="M270.75 560.5 a4.75 4.75 0 1 0 9.5 0 a4.75 4.75 0 1 0 -9.5 0zM327.75 560.5 a4.75 4.75 0 1 0 9.5 0 a4.75 4.75 0 1 0 -9.5 0z" fill="#3a7cc3"></path><path d="M1244.5 28.5L1263.5 9.5L1282.5 9.5" stroke-width="3.17" stroke="#3a7cc3"></path><path d="M1239.75 28.5 a4.75 4.75 0 1 0 9.5 0 a4.75 4.75 0 1 0 -9.5 0zM1277.75 9.5 a4.75 4.75 0 1 0 9.5 0 a4.75 4.75 0 1 0 -9.5 0z" fill="#3a7cc3"></path><path d="M313.5 199.5L313.5 180.5L332.5 161.5" stroke-width="3.17" stroke="#3a7cc3"></path><path d="M308.75 199.5 a4.75 4.75 0 1 0 9.5 0 a4.75 4.75 0 1 0 -9.5 0zM327.75 161.5 a4.75 4.75 0 1 0 9.5 0 a4.75 4.75 0 1 0 -9.5 0z" fill="#3a7cc3"></path><path d="M902.5 484.5L826.5 560.5L541.5 560.5" stroke-width="3.17" stroke="#3a7cc3"></path><path d="M897.75 484.5 a4.75 4.75 0 1 0 9.5 0 a4.75 4.75 0 1 0 -9.5 0zM536.75 560.5 a4.75 4.75 0 1 0 9.5 0 a4.75 4.75 0 1 0 -9.5 0z" fill="#3a7cc3"></path><path d="M693.5 541.5L788.5 541.5" stroke-width="3.17" stroke="#3a7cc3"></path><path d="M688.75 541.5 a4.75 4.75 0 1 0 9.5 0 a4.75 4.75 0 1 0 -9.5 0zM783.75 541.5 a4.75 4.75 0 1 0 9.5 0 a4.75 4.75 0 1 0 -9.5 0z" fill="#3a7cc3"></path><path d="M940.5 503.5L902.5 503.5L845.5 560.5" stroke-width="3.17" stroke="#3a7cc3"></path><path d="M935.75 503.5 a4.75 4.75 0 1 0 9.5 0 a4.75 4.75 0 1 0 -9.5 0zM840.75 560.5 a4.75 4.75 0 1 0 9.5 0 a4.75 4.75 0 1 0 -9.5 0z" fill="#3a7cc3"></path><path d="M294.5 275.5L275.5 256.5L256.5 256.5" stroke-width="3.17" stroke="#3a7cc3"></path><path d="M289.75 275.5 a4.75 4.75 0 1 0 9.5 0 a4.75 4.75 0 1 0 -9.5 0zM251.75 256.5 a4.75 4.75 0 1 0 9.5 0 a4.75 4.75 0 1 0 -9.5 0z" fill="#3a7cc3"></path><path d="M1168.5 313.5L1168.5 199.5" stroke-width="3.17" stroke="#3a7cc3"></path><path d="M1163.75 313.5 a4.75 4.75 0 1 0 9.5 0 a4.75 4.75 0 1 0 -9.5 0zM1163.75 199.5 a4.75 4.75 0 1 0 9.5 0 a4.75 4.75 0 1 0 -9.5 0z" fill="#3a7cc3"></path><path d="M921.5 560.5L1054.5 560.5L1111.5 503.5" stroke-width="3.17" stroke="#3a7cc3"></path><path d="M916.75 560.5 a4.75 4.75 0 1 0 9.5 0 a4.75 4.75 0 1 0 -9.5 0zM1106.75 503.5 a4.75 4.75 0 1 0 9.5 0 a4.75 4.75 0 1 0 -9.5 0z" fill="#3a7cc3"></path><path d="M1054.5 389.5L1054.5 351.5L1149.5 256.5" stroke-width="3.17" stroke="#3a7cc3"></path><path d="M1049.75 389.5 a4.75 4.75 0 1 0 9.5 0 a4.75 4.75 0 1 0 -9.5 0zM1144.75 256.5 a4.75 4.75 0 1 0 9.5 0 a4.75 4.75 0 1 0 -9.5 0z" fill="#3a7cc3"></path><path d="M864.5 66.5L731.5 66.5L712.5 85.5L712.5 104.5L788.5 180.5L864.5 180.5L902.5 142.5" stroke-width="3.17" stroke="#3a7cc3"></path><path d="M859.75 66.5 a4.75 4.75 0 1 0 9.5 0 a4.75 4.75 0 1 0 -9.5 0zM897.75 142.5 a4.75 4.75 0 1 0 9.5 0 a4.75 4.75 0 1 0 -9.5 0z" fill="#3a7cc3"></path><path d="M9.5 47.5L9.5 66.5L28.5 85.5L28.5 161.5L9.5 180.5L9.5 370.5" stroke-width="3.17" stroke="#3a7cc3"></path><path d="M4.75 47.5 a4.75 4.75 0 1 0 9.5 0 a4.75 4.75 0 1 0 -9.5 0zM4.75 370.5 a4.75 4.75 0 1 0 9.5 0 a4.75 4.75 0 1 0 -9.5 0z" fill="#3a7cc3"></path><path d="M1244.5 332.5L1244.5 256.5L1206.5 218.5" stroke-width="3.17" stroke="#3a7cc3"></path><path d="M1239.75 332.5 a4.75 4.75 0 1 0 9.5 0 a4.75 4.75 0 1 0 -9.5 0zM1201.75 218.5 a4.75 4.75 0 1 0 9.5 0 a4.75 4.75 0 1 0 -9.5 0z" fill="#3a7cc3"></path><path d="M104.5 446.5L47.5 503.5" stroke-width="3.17" stroke="#3a7cc3"></path><path d="M99.75 446.5 a4.75 4.75 0 1 0 9.5 0 a4.75 4.75 0 1 0 -9.5 0zM42.75 503.5 a4.75 4.75 0 1 0 9.5 0 a4.75 4.75 0 1 0 -9.5 0z" fill="#3a7cc3"></path><path d="M465.5 66.5L484.5 66.5L503.5 85.5" stroke-width="3.17" stroke="#3a7cc3"></path><path d="M460.75 66.5 a4.75 4.75 0 1 0 9.5 0 a4.75 4.75 0 1 0 -9.5 0zM498.75 85.5 a4.75 4.75 0 1 0 9.5 0 a4.75 4.75 0 1 0 -9.5 0z" fill="#3a7cc3"></path><path d="M769.5 332.5L731.5 332.5" stroke-width="3.17" stroke="#3a7cc3"></path><path d="M764.75 332.5 a4.75 4.75 0 1 0 9.5 0 a4.75 4.75 0 1 0 -9.5 0zM726.75 332.5 a4.75 4.75 0 1 0 9.5 0 a4.75 4.75 0 1 0 -9.5 0z" fill="#3a7cc3"></path><path d="M674.5 9.5L579.5 9.5" stroke-width="3.17" stroke="#3a7cc3"></path><path d="M669.75 9.5 a4.75 4.75 0 1 0 9.5 0 a4.75 4.75 0 1 0 -9.5 0zM574.75 9.5 a4.75 4.75 0 1 0 9.5 0 a4.75 4.75 0 1 0 -9.5 0z" fill="#3a7cc3"></path><path d="M1396.5 237.5L1301.5 237.5" stroke-width="3.17" stroke="#3a7cc3"></path><path d="M1391.75 237.5 a4.75 4.75 0 1 0 9.5 0 a4.75 4.75 0 1 0 -9.5 0zM1296.75 237.5 a4.75 4.75 0 1 0 9.5 0 a4.75 4.75 0 1 0 -9.5 0z" fill="#3a7cc3"></path><path d="M446.5 161.5L446.5 28.5" stroke-width="3.17" stroke="#3a7cc3"></path><path d="M441.75 161.5 a4.75 4.75 0 1 0 9.5 0 a4.75 4.75 0 1 0 -9.5 0zM441.75 28.5 a4.75 4.75 0 1 0 9.5 0 a4.75 4.75 0 1 0 -9.5 0z" fill="#3a7cc3"></path><path d="M313.5 313.5L332.5 332.5L389.5 332.5" stroke-width="3.17" stroke="#3a7cc3"></path><path d="M308.75 313.5 a4.75 4.75 0 1 0 9.5 0 a4.75 4.75 0 1 0 -9.5 0zM384.75 332.5 a4.75 4.75 0 1 0 9.5 0 a4.75 4.75 0 1 0 -9.5 0z" fill="#3a7cc3"></path><path d="M1434.5 142.5L1415.5 161.5L1396.5 161.5" stroke-width="3.17" stroke="#3a7cc3"></path><path d="M1429.75 142.5 a4.75 4.75 0 1 0 9.5 0 a4.75 4.75 0 1 0 -9.5 0zM1391.75 161.5 a4.75 4.75 0 1 0 9.5 0 a4.75 4.75 0 1 0 -9.5 0z" fill="#3a7cc3"></path><path d="M237.5 427.5L199.5 389.5" stroke-width="3.17" stroke="#3a7cc3"></path><path d="M232.75 427.5 a4.75 4.75 0 1 0 9.5 0 a4.75 4.75 0 1 0 -9.5 0zM194.75 389.5 a4.75 4.75 0 1 0 9.5 0 a4.75 4.75 0 1 0 -9.5 0z" fill="#3a7cc3"></path><path d="M408.5 218.5L370.5 180.5L370.5 104.5L427.5 47.5L427.5 28.5" stroke-width="3.17" stroke="#3a7cc3"></path><path d="M403.75 218.5 a4.75 4.75 0 1 0 9.5 0 a4.75 4.75 0 1 0 -9.5 0zM422.75 28.5 a4.75 4.75 0 1 0 9.5 0 a4.75 4.75 0 1 0 -9.5 0z" fill="#3a7cc3"></path><path d="M161.5 256.5L161.5 275.5L104.5 332.5" stroke-width="3.17" stroke="#3a7cc3"></path><path d="M156.75 256.5 a4.75 4.75 0 1 0 9.5 0 a4.75 4.75 0 1 0 -9.5 0zM99.75 332.5 a4.75 4.75 0 1 0 9.5 0 a4.75 4.75 0 1 0 -9.5 0z" fill="#3a7cc3"></path><path d="M788.5 104.5L788.5 161.5" stroke-width="3.17" stroke="#3a7cc3"></path><path d="M783.75 104.5 a4.75 4.75 0 1 0 9.5 0 a4.75 4.75 0 1 0 -9.5 0zM783.75 161.5 a4.75 4.75 0 1 0 9.5 0 a4.75 4.75 0 1 0 -9.5 0z" fill="#3a7cc3"></path><path d="M1377.5 218.5L1396.5 218.5L1434.5 256.5L1434.5 351.5" stroke-width="3.17" stroke="#3a7cc3"></path><path d="M1372.75 218.5 a4.75 4.75 0 1 0 9.5 0 a4.75 4.75 0 1 0 -9.5 0zM1429.75 351.5 a4.75 4.75 0 1 0 9.5 0 a4.75 4.75 0 1 0 -9.5 0z" fill="#3a7cc3"></path><path d="M503.5 408.5L503.5 389.5L560.5 332.5" stroke-width="3.17" stroke="#3a7cc3"></path><path d="M498.75 408.5 a4.75 4.75 0 1 0 9.5 0 a4.75 4.75 0 1 0 -9.5 0zM555.75 332.5 a4.75 4.75 0 1 0 9.5 0 a4.75 4.75 0 1 0 -9.5 0z" fill="#3a7cc3"></path><path d="M332.5 199.5L389.5 256.5L408.5 256.5" stroke-width="3.17" stroke="#3a7cc3"></path><path d="M327.75 199.5 a4.75 4.75 0 1 0 9.5 0 a4.75 4.75 0 1 0 -9.5 0zM403.75 256.5 a4.75 4.75 0 1 0 9.5 0 a4.75 4.75 0 1 0 -9.5 0z" fill="#3a7cc3"></path><path d="M1358.5 180.5L1377.5 180.5L1396.5 199.5" stroke-width="3.17" stroke="#3a7cc3"></path><path d="M1353.75 180.5 a4.75 4.75 0 1 0 9.5 0 a4.75 4.75 0 1 0 -9.5 0zM1391.75 199.5 a4.75 4.75 0 1 0 9.5 0 a4.75 4.75 0 1 0 -9.5 0z" fill="#3a7cc3"></path><path d="M1111.5 408.5L1130.5 427.5L1130.5 465.5L1149.5 484.5L1168.5 484.5" stroke-width="3.17" stroke="#3a7cc3"></path><path d="M1106.75 408.5 a4.75 4.75 0 1 0 9.5 0 a4.75 4.75 0 1 0 -9.5 0zM1163.75 484.5 a4.75 4.75 0 1 0 9.5 0 a4.75 4.75 0 1 0 -9.5 0z" fill="#3a7cc3"></path><path d="M978.5 85.5L921.5 28.5" stroke-width="3.17" stroke="#3a7cc3"></path><path d="M973.75 85.5 a4.75 4.75 0 1 0 9.5 0 a4.75 4.75 0 1 0 -9.5 0zM916.75 28.5 a4.75 4.75 0 1 0 9.5 0 a4.75 4.75 0 1 0 -9.5 0z" fill="#3a7cc3"></path><path d="M28.5 218.5L28.5 180.5" stroke-width="3.17" stroke="#3a7cc3"></path><path d="M23.75 218.5 a4.75 4.75 0 1 0 9.5 0 a4.75 4.75 0 1 0 -9.5 0zM23.75 180.5 a4.75 4.75 0 1 0 9.5 0 a4.75 4.75 0 1 0 -9.5 0z" fill="#3a7cc3"></path><path d="M294.5 408.5L294.5 370.5" stroke-width="3.17" stroke="#3a7cc3"></path><path d="M289.75 408.5 a4.75 4.75 0 1 0 9.5 0 a4.75 4.75 0 1 0 -9.5 0zM289.75 370.5 a4.75 4.75 0 1 0 9.5 0 a4.75 4.75 0 1 0 -9.5 0z" fill="#3a7cc3"></path><path d="M427.5 161.5L484.5 218.5L484.5 275.5" stroke-width="3.17" stroke="#3a7cc3"></path><path d="M422.75 161.5 a4.75 4.75 0 1 0 9.5 0 a4.75 4.75 0 1 0 -9.5 0zM479.75 275.5 a4.75 4.75 0 1 0 9.5 0 a4.75 4.75 0 1 0 -9.5 0z" fill="#3a7cc3"></path><path d="M997.5 66.5L978.5 47.5L978.5 28.5" stroke-width="3.17" stroke="#3a7cc3"></path><path d="M992.75 66.5 a4.75 4.75 0 1 0 9.5 0 a4.75 4.75 0 1 0 -9.5 0zM973.75 28.5 a4.75 4.75 0 1 0 9.5 0 a4.75 4.75 0 1 0 -9.5 0z" fill="#3a7cc3"></path><path d="M1320.5 446.5L1320.5 503.5L1301.5 522.5L1301.5 560.5" stroke-width="3.17" stroke="#3a7cc3"></path><path d="M1315.75 446.5 a4.75 4.75 0 1 0 9.5 0 a4.75 4.75 0 1 0 -9.5 0zM1296.75 560.5 a4.75 4.75 0 1 0 9.5 0 a4.75 4.75 0 1 0 -9.5 0z" fill="#3a7cc3"></path><path d="M845.5 294.5L826.5 313.5L807.5 313.5L750.5 256.5" stroke-width="3.17" stroke="#3a7cc3"></path><path d="M840.75 294.5 a4.75 4.75 0 1 0 9.5 0 a4.75 4.75 0 1 0 -9.5 0zM745.75 256.5 a4.75 4.75 0 1 0 9.5 0 a4.75 4.75 0 1 0 -9.5 0z" fill="#3a7cc3"></path><path d="M180.5 541.5L256.5 541.5L275.5 522.5L275.5 465.5L332.5 408.5L332.5 370.5" stroke-width="3.17" stroke="#3a7cc3"></path><path d="M175.75 541.5 a4.75 4.75 0 1 0 9.5 0 a4.75 4.75 0 1 0 -9.5 0zM327.75 370.5 a4.75 4.75 0 1 0 9.5 0 a4.75 4.75 0 1 0 -9.5 0z" fill="#3a7cc3"></path><path d="M123.5 104.5L123.5 66.5L104.5 47.5" stroke-width="3.17" stroke="#3a7cc3"></path><path d="M118.75 104.5 a4.75 4.75 0 1 0 9.5 0 a4.75 4.75 0 1 0 -9.5 0zM99.75 47.5 a4.75 4.75 0 1 0 9.5 0 a4.75 4.75 0 1 0 -9.5 0z" fill="#3a7cc3"></path><path d="M1377.5 465.5L1377.5 446.5L1358.5 427.5L1301.5 427.5" stroke-width="3.17" stroke="#3a7cc3"></path><path d="M1372.75 465.5 a4.75 4.75 0 1 0 9.5 0 a4.75 4.75 0 1 0 -9.5 0zM1296.75 427.5 a4.75 4.75 0 1 0 9.5 0 a4.75 4.75 0 1 0 -9.5 0z" fill="#3a7cc3"></path><path d="M883.5 142.5L864.5 161.5L807.5 161.5" stroke-width="3.17" stroke="#3a7cc3"></path><path d="M878.75 142.5 a4.75 4.75 0 1 0 9.5 0 a4.75 4.75 0 1 0 -9.5 0zM802.75 161.5 a4.75 4.75 0 1 0 9.5 0 a4.75 4.75 0 1 0 -9.5 0z" fill="#3a7cc3"></path><path d="M788.5 446.5L826.5 446.5" stroke-width="3.17" stroke="#3a7cc3"></path><path d="M783.75 446.5 a4.75 4.75 0 1 0 9.5 0 a4.75 4.75 0 1 0 -9.5 0zM821.75 446.5 a4.75 4.75 0 1 0 9.5 0 a4.75 4.75 0 1 0 -9.5 0z" fill="#3a7cc3"></path><path d="M598.5 408.5L636.5 370.5L655.5 370.5" stroke-width="3.17" stroke="#3a7cc3"></path><path d="M593.75 408.5 a4.75 4.75 0 1 0 9.5 0 a4.75 4.75 0 1 0 -9.5 0zM650.75 370.5 a4.75 4.75 0 1 0 9.5 0 a4.75 4.75 0 1 0 -9.5 0z" fill="#3a7cc3"></path><path d="M66.5 47.5L104.5 85.5L104.5 104.5L85.5 123.5L85.5 180.5L66.5 199.5L66.5 313.5" stroke-width="3.17" stroke="#3a7cc3"></path><path d="M61.75 47.5 a4.75 4.75 0 1 0 9.5 0 a4.75 4.75 0 1 0 -9.5 0zM61.75 313.5 a4.75 4.75 0 1 0 9.5 0 a4.75 4.75 0 1 0 -9.5 0z" fill="#3a7cc3"></path><path d="M731.5 180.5L750.5 199.5L750.5 218.5" stroke-width="3.17" stroke="#3a7cc3"></path><path d="M726.75 180.5 a4.75 4.75 0 1 0 9.5 0 a4.75 4.75 0 1 0 -9.5 0zM745.75 218.5 a4.75 4.75 0 1 0 9.5 0 a4.75 4.75 0 1 0 -9.5 0z" fill="#3a7cc3"></path><path d="M123.5 408.5L123.5 351.5" stroke-width="3.17" stroke="#3a7cc3"></path><path d="M118.75 408.5 a4.75 4.75 0 1 0 9.5 0 a4.75 4.75 0 1 0 -9.5 0zM118.75 351.5 a4.75 4.75 0 1 0 9.5 0 a4.75 4.75 0 1 0 -9.5 0z" fill="#3a7cc3"></path><path d="M731.5 351.5L750.5 370.5L807.5 370.5L845.5 408.5L864.5 408.5" stroke-width="3.17" stroke="#3a7cc3"></path><path d="M726.75 351.5 a4.75 4.75 0 1 0 9.5 0 a4.75 4.75 0 1 0 -9.5 0zM859.75 408.5 a4.75 4.75 0 1 0 9.5 0 a4.75 4.75 0 1 0 -9.5 0z" fill="#3a7cc3"></path><path d="M864.5 123.5L807.5 123.5" stroke-width="3.17" stroke="#3a7cc3"></path><path d="M859.75 123.5 a4.75 4.75 0 1 0 9.5 0 a4.75 4.75 0 1 0 -9.5 0zM802.75 123.5 a4.75 4.75 0 1 0 9.5 0 a4.75 4.75 0 1 0 -9.5 0z" fill="#3a7cc3"></path><path d="M883.5 294.5L883.5 313.5L902.5 332.5L959.5 332.5L1035.5 256.5" stroke-width="3.17" stroke="#3a7cc3"></path><path d="M878.75 294.5 a4.75 4.75 0 1 0 9.5 0 a4.75 4.75 0 1 0 -9.5 0zM1030.75 256.5 a4.75 4.75 0 1 0 9.5 0 a4.75 4.75 0 1 0 -9.5 0z" fill="#3a7cc3"></path><path d="M902.5 560.5L864.5 560.5" stroke-width="3.17" stroke="#3a7cc3"></path><path d="M897.75 560.5 a4.75 4.75 0 1 0 9.5 0 a4.75 4.75 0 1 0 -9.5 0zM859.75 560.5 a4.75 4.75 0 1 0 9.5 0 a4.75 4.75 0 1 0 -9.5 0z" fill="#3a7cc3"></path><path d="M864.5 9.5L826.5 9.5L807.5 28.5L750.5 28.5L731.5 9.5L693.5 9.5L655.5 47.5L617.5 47.5L598.5 28.5" stroke-width="3.17" stroke="#3a7cc3"></path><path d="M859.75 9.5 a4.75 4.75 0 1 0 9.5 0 a4.75 4.75 0 1 0 -9.5 0zM593.75 28.5 a4.75 4.75 0 1 0 9.5 0 a4.75 4.75 0 1 0 -9.5 0z" fill="#3a7cc3"></path><path d="M1377.5 332.5L1377.5 256.5" stroke-width="3.17" stroke="#3a7cc3"></path><path d="M1372.75 332.5 a4.75 4.75 0 1 0 9.5 0 a4.75 4.75 0 1 0 -9.5 0zM1372.75 256.5 a4.75 4.75 0 1 0 9.5 0 a4.75 4.75 0 1 0 -9.5 0z" fill="#3a7cc3"></path><path d="M579.5 389.5L598.5 370.5L617.5 370.5" stroke-width="3.17" stroke="#3a7cc3"></path><path d="M574.75 389.5 a4.75 4.75 0 1 0 9.5 0 a4.75 4.75 0 1 0 -9.5 0zM612.75 370.5 a4.75 4.75 0 1 0 9.5 0 a4.75 4.75 0 1 0 -9.5 0z" fill="#3a7cc3"></path><path d="M579.5 427.5L560.5 446.5L503.5 446.5" stroke-width="3.17" stroke="#3a7cc3"></path><path d="M574.75 427.5 a4.75 4.75 0 1 0 9.5 0 a4.75 4.75 0 1 0 -9.5 0zM498.75 446.5 a4.75 4.75 0 1 0 9.5 0 a4.75 4.75 0 1 0 -9.5 0z" fill="#3a7cc3"></path><path d="M66.5 541.5L199.5 408.5" stroke-width="3.17" stroke="#3a7cc3"></path><path d="M61.75 541.5 a4.75 4.75 0 1 0 9.5 0 a4.75 4.75 0 1 0 -9.5 0zM194.75 408.5 a4.75 4.75 0 1 0 9.5 0 a4.75 4.75 0 1 0 -9.5 0z" fill="#3a7cc3"></path><path d="M1168.5 370.5L1168.5 332.5L1130.5 294.5" stroke-width="3.17" stroke="#3a7cc3"></path><path d="M1163.75 370.5 a4.75 4.75 0 1 0 9.5 0 a4.75 4.75 0 1 0 -9.5 0zM1125.75 294.5 a4.75 4.75 0 1 0 9.5 0 a4.75 4.75 0 1 0 -9.5 0z" fill="#3a7cc3"></path><path d="M522.5 142.5L560.5 142.5L617.5 199.5L617.5 218.5L560.5 275.5L560.5 294.5" stroke-width="3.17" stroke="#3a7cc3"></path><path d="M517.75 142.5 a4.75 4.75 0 1 0 9.5 0 a4.75 4.75 0 1 0 -9.5 0zM555.75 294.5 a4.75 4.75 0 1 0 9.5 0 a4.75 4.75 0 1 0 -9.5 0z" fill="#3a7cc3"></path><path d="M560.5 199.5L560.5 161.5" stroke-width="3.17" stroke="#3a7cc3"></path><path d="M555.75 199.5 a4.75 4.75 0 1 0 9.5 0 a4.75 4.75 0 1 0 -9.5 0zM555.75 161.5 a4.75 4.75 0 1 0 9.5 0 a4.75 4.75 0 1 0 -9.5 0z" fill="#3a7cc3"></path><path d="M1187.5 370.5L1187.5 332.5L1206.5 313.5L1225.5 313.5" stroke-width="3.17" stroke="#3a7cc3"></path><path d="M1182.75 370.5 a4.75 4.75 0 1 0 9.5 0 a4.75 4.75 0 1 0 -9.5 0zM1220.75 313.5 a4.75 4.75 0 1 0 9.5 0 a4.75 4.75 0 1 0 -9.5 0z" fill="#3a7cc3"></path><path d="M997.5 522.5L978.5 503.5L959.5 503.5L940.5 522.5L940.5 541.5" stroke-width="3.17" stroke="#3a7cc3"></path><path d="M992.75 522.5 a4.75 4.75 0 1 0 9.5 0 a4.75 4.75 0 1 0 -9.5 0zM935.75 541.5 a4.75 4.75 0 1 0 9.5 0 a4.75 4.75 0 1 0 -9.5 0z" fill="#3a7cc3"></path><path d="M1206.5 237.5L1206.5 294.5" stroke-width="3.17" stroke="#3a7cc3"></path><path d="M1201.75 237.5 a4.75 4.75 0 1 0 9.5 0 a4.75 4.75 0 1 0 -9.5 0zM1201.75 294.5 a4.75 4.75 0 1 0 9.5 0 a4.75 4.75 0 1 0 -9.5 0z" fill="#3a7cc3"></path><path d="M845.5 28.5L883.5 28.5L902.5 9.5" stroke-width="3.17" stroke="#3a7cc3"></path><path d="M840.75 28.5 a4.75 4.75 0 1 0 9.5 0 a4.75 4.75 0 1 0 -9.5 0zM897.75 9.5 a4.75 4.75 0 1 0 9.5 0 a4.75 4.75 0 1 0 -9.5 0z" fill="#3a7cc3"></path><path d="M560.5 28.5L503.5 28.5" stroke-width="3.17" stroke="#3a7cc3"></path><path d="M555.75 28.5 a4.75 4.75 0 1 0 9.5 0 a4.75 4.75 0 1 0 -9.5 0zM498.75 28.5 a4.75 4.75 0 1 0 9.5 0 a4.75 4.75 0 1 0 -9.5 0z" fill="#3a7cc3"></path><path d="M617.5 408.5L636.5 389.5L655.5 389.5" stroke-width="3.17" stroke="#3a7cc3"></path><path d="M612.75 408.5 a4.75 4.75 0 1 0 9.5 0 a4.75 4.75 0 1 0 -9.5 0zM650.75 389.5 a4.75 4.75 0 1 0 9.5 0 a4.75 4.75 0 1 0 -9.5 0z" fill="#3a7cc3"></path><path d="M1035.5 313.5L978.5 370.5L978.5 389.5" stroke-width="3.17" stroke="#3a7cc3"></path><path d="M1030.75 313.5 a4.75 4.75 0 1 0 9.5 0 a4.75 4.75 0 1 0 -9.5 0zM973.75 389.5 a4.75 4.75 0 1 0 9.5 0 a4.75 4.75 0 1 0 -9.5 0z" fill="#3a7cc3"></path><path d="M1263.5 142.5L1225.5 180.5L1206.5 180.5L1168.5 142.5L1168.5 85.5" stroke-width="3.17" stroke="#3a7cc3"></path><path d="M1258.75 142.5 a4.75 4.75 0 1 0 9.5 0 a4.75 4.75 0 1 0 -9.5 0zM1163.75 85.5 a4.75 4.75 0 1 0 9.5 0 a4.75 4.75 0 1 0 -9.5 0z" fill="#3a7cc3"></path><path d="M845.5 484.5L826.5 503.5L826.5 522.5" stroke-width="3.17" stroke="#3a7cc3"></path><path d="M840.75 484.5 a4.75 4.75 0 1 0 9.5 0 a4.75 4.75 0 1 0 -9.5 0zM821.75 522.5 a4.75 4.75 0 1 0 9.5 0 a4.75 4.75 0 1 0 -9.5 0z" fill="#3a7cc3"></path><path d="M1358.5 560.5L1377.5 541.5L1377.5 484.5L1339.5 446.5" stroke-width="3.17" stroke="#3a7cc3"></path><path d="M1353.75 560.5 a4.75 4.75 0 1 0 9.5 0 a4.75 4.75 0 1 0 -9.5 0zM1334.75 446.5 a4.75 4.75 0 1 0 9.5 0 a4.75 4.75 0 1 0 -9.5 0z" fill="#3a7cc3"></path><path d="M66.5 180.5L66.5 66.5" stroke-width="3.17" stroke="#3a7cc3"></path><path d="M61.75 180.5 a4.75 4.75 0 1 0 9.5 0 a4.75 4.75 0 1 0 -9.5 0zM61.75 66.5 a4.75 4.75 0 1 0 9.5 0 a4.75 4.75 0 1 0 -9.5 0z" fill="#3a7cc3"></path><path d="M845.5 275.5L826.5 256.5L769.5 256.5" stroke-width="3.17" stroke="#3a7cc3"></path><path d="M840.75 275.5 a4.75 4.75 0 1 0 9.5 0 a4.75 4.75 0 1 0 -9.5 0zM764.75 256.5 a4.75 4.75 0 1 0 9.5 0 a4.75 4.75 0 1 0 -9.5 0z" fill="#3a7cc3"></path><path d="M47.5 446.5L28.5 446.5L9.5 465.5" stroke-width="3.17" stroke="#3a7cc3"></path><path d="M42.75 446.5 a4.75 4.75 0 1 0 9.5 0 a4.75 4.75 0 1 0 -9.5 0zM4.75 465.5 a4.75 4.75 0 1 0 9.5 0 a4.75 4.75 0 1 0 -9.5 0z" fill="#3a7cc3"></path><path d="M1206.5 560.5L1206.5 541.5L1187.5 522.5L1111.5 522.5L1073.5 560.5" stroke-width="3.17" stroke="#3a7cc3"></path><path d="M1201.75 560.5 a4.75 4.75 0 1 0 9.5 0 a4.75 4.75 0 1 0 -9.5 0zM1068.75 560.5 a4.75 4.75 0 1 0 9.5 0 a4.75 4.75 0 1 0 -9.5 0z" fill="#3a7cc3"></path><path d="M1111.5 313.5L1149.5 351.5L1149.5 427.5L1168.5 446.5L1168.5 465.5" stroke-width="3.17" stroke="#3a7cc3"></path><path d="M1106.75 313.5 a4.75 4.75 0 1 0 9.5 0 a4.75 4.75 0 1 0 -9.5 0zM1163.75 465.5 a4.75 4.75 0 1 0 9.5 0 a4.75 4.75 0 1 0 -9.5 0z" fill="#3a7cc3"></path><path d="M1035.5 522.5L1035.5 503.5L1073.5 465.5" stroke-width="3.17" stroke="#3a7cc3"></path><path d="M1030.75 522.5 a4.75 4.75 0 1 0 9.5 0 a4.75 4.75 0 1 0 -9.5 0zM1068.75 465.5 a4.75 4.75 0 1 0 9.5 0 a4.75 4.75 0 1 0 -9.5 0z" fill="#3a7cc3"></path><path d="M1244.5 104.5L1225.5 104.5L1187.5 142.5" stroke-width="3.17" stroke="#3a7cc3"></path><path d="M1239.75 104.5 a4.75 4.75 0 1 0 9.5 0 a4.75 4.75 0 1 0 -9.5 0zM1182.75 142.5 a4.75 4.75 0 1 0 9.5 0 a4.75 4.75 0 1 0 -9.5 0z" fill="#3a7cc3"></path><path d="M484.5 142.5L484.5 161.5L503.5 180.5" stroke-width="3.17" stroke="#3a7cc3"></path><path d="M479.75 142.5 a4.75 4.75 0 1 0 9.5 0 a4.75 4.75 0 1 0 -9.5 0zM498.75 180.5 a4.75 4.75 0 1 0 9.5 0 a4.75 4.75 0 1 0 -9.5 0z" fill="#3a7cc3"></path><path d="M902.5 275.5L864.5 275.5L845.5 256.5" stroke-width="3.17" stroke="#3a7cc3"></path><path d="M897.75 275.5 a4.75 4.75 0 1 0 9.5 0 a4.75 4.75 0 1 0 -9.5 0zM840.75 256.5 a4.75 4.75 0 1 0 9.5 0 a4.75 4.75 0 1 0 -9.5 0z" fill="#3a7cc3"></path><path d="M9.5 123.5L9.5 161.5" stroke-width="3.17" stroke="#3a7cc3"></path><path d="M4.75 123.5 a4.75 4.75 0 1 0 9.5 0 a4.75 4.75 0 1 0 -9.5 0zM4.75 161.5 a4.75 4.75 0 1 0 9.5 0 a4.75 4.75 0 1 0 -9.5 0z" fill="#3a7cc3"></path><path d="M1225.5 446.5L1244.5 427.5L1244.5 408.5" stroke-width="3.17" stroke="#3a7cc3"></path><path d="M1220.75 446.5 a4.75 4.75 0 1 0 9.5 0 a4.75 4.75 0 1 0 -9.5 0zM1239.75 408.5 a4.75 4.75 0 1 0 9.5 0 a4.75 4.75 0 1 0 -9.5 0z" fill="#3a7cc3"></path><path d="M864.5 142.5L807.5 142.5" stroke-width="3.17" stroke="#3a7cc3"></path><path d="M859.75 142.5 a4.75 4.75 0 1 0 9.5 0 a4.75 4.75 0 1 0 -9.5 0zM802.75 142.5 a4.75 4.75 0 1 0 9.5 0 a4.75 4.75 0 1 0 -9.5 0z" fill="#3a7cc3"></path><path d="M864.5 256.5L902.5 256.5L959.5 313.5" stroke-width="3.17" stroke="#3a7cc3"></path><path d="M859.75 256.5 a4.75 4.75 0 1 0 9.5 0 a4.75 4.75 0 1 0 -9.5 0zM954.75 313.5 a4.75 4.75 0 1 0 9.5 0 a4.75 4.75 0 1 0 -9.5 0z" fill="#3a7cc3"></path><path d="M256.5 332.5L294.5 332.5" stroke-width="3.17" stroke="#3a7cc3"></path><path d="M251.75 332.5 a4.75 4.75 0 1 0 9.5 0 a4.75 4.75 0 1 0 -9.5 0zM289.75 332.5 a4.75 4.75 0 1 0 9.5 0 a4.75 4.75 0 1 0 -9.5 0z" fill="#3a7cc3"></path><path d="M750.5 427.5L750.5 389.5L731.5 370.5" stroke-width="3.17" stroke="#3a7cc3"></path><path d="M745.75 427.5 a4.75 4.75 0 1 0 9.5 0 a4.75 4.75 0 1 0 -9.5 0zM726.75 370.5 a4.75 4.75 0 1 0 9.5 0 a4.75 4.75 0 1 0 -9.5 0z" fill="#3a7cc3"></path><path d="M1415.5 427.5L1415.5 560.5" stroke-width="3.17" stroke="#3a7cc3"></path><path d="M1410.75 427.5 a4.75 4.75 0 1 0 9.5 0 a4.75 4.75 0 1 0 -9.5 0zM1410.75 560.5 a4.75 4.75 0 1 0 9.5 0 a4.75 4.75 0 1 0 -9.5 0z" fill="#3a7cc3"></path><path d="M1111.5 332.5L1092.5 332.5L1073.5 351.5L1073.5 408.5L1092.5 427.5L1111.5 427.5" stroke-width="3.17" stroke="#3a7cc3"></path><path d="M1106.75 332.5 a4.75 4.75 0 1 0 9.5 0 a4.75 4.75 0 1 0 -9.5 0zM1106.75 427.5 a4.75 4.75 0 1 0 9.5 0 a4.75 4.75 0 1 0 -9.5 0z" fill="#3a7cc3"></path><path d="M1434.5 503.5L1434.5 560.5" stroke-width="3.17" stroke="#3a7cc3"></path><path d="M1429.75 503.5 a4.75 4.75 0 1 0 9.5 0 a4.75 4.75 0 1 0 -9.5 0zM1429.75 560.5 a4.75 4.75 0 1 0 9.5 0 a4.75 4.75 0 1 0 -9.5 0z" fill="#3a7cc3"></path><path d="M161.5 142.5L199.5 180.5L218.5 180.5" stroke-width="3.17" stroke="#3a7cc3"></path><path d="M156.75 142.5 a4.75 4.75 0 1 0 9.5 0 a4.75 4.75 0 1 0 -9.5 0zM213.75 180.5 a4.75 4.75 0 1 0 9.5 0 a4.75 4.75 0 1 0 -9.5 0z" fill="#3a7cc3"></path><path d="M123.5 237.5L123.5 294.5L104.5 313.5" stroke-width="3.17" stroke="#3a7cc3"></path><path d="M118.75 237.5 a4.75 4.75 0 1 0 9.5 0 a4.75 4.75 0 1 0 -9.5 0zM99.75 313.5 a4.75 4.75 0 1 0 9.5 0 a4.75 4.75 0 1 0 -9.5 0z" fill="#3a7cc3"></path><path d="M1016.5 351.5L1016.5 389.5" stroke-width="3.17" stroke="#3a7cc3"></path><path d="M1011.75 351.5 a4.75 4.75 0 1 0 9.5 0 a4.75 4.75 0 1 0 -9.5 0zM1011.75 389.5 a4.75 4.75 0 1 0 9.5 0 a4.75 4.75 0 1 0 -9.5 0z" fill="#3a7cc3"></path><path d="M1092.5 351.5L1111.5 370.5L1111.5 389.5L1092.5 408.5" stroke-width="3.17" stroke="#3a7cc3"></path><path d="M1087.75 351.5 a4.75 4.75 0 1 0 9.5 0 a4.75 4.75 0 1 0 -9.5 0zM1087.75 408.5 a4.75 4.75 0 1 0 9.5 0 a4.75 4.75 0 1 0 -9.5 0z" fill="#3a7cc3"></path><path d="M465.5 522.5L446.5 522.5L427.5 503.5L427.5 484.5L446.5 465.5" stroke-width="3.17" stroke="#3a7cc3"></path><path d="M460.75 522.5 a4.75 4.75 0 1 0 9.5 0 a4.75 4.75 0 1 0 -9.5 0zM441.75 465.5 a4.75 4.75 0 1 0 9.5 0 a4.75 4.75 0 1 0 -9.5 0z" fill="#3a7cc3"></path><path d="M465.5 218.5L427.5 218.5" stroke-width="3.17" stroke="#3a7cc3"></path><path d="M460.75 218.5 a4.75 4.75 0 1 0 9.5 0 a4.75 4.75 0 1 0 -9.5 0zM422.75 218.5 a4.75 4.75 0 1 0 9.5 0 a4.75 4.75 0 1 0 -9.5 0z" fill="#3a7cc3"></path><path d="M1358.5 332.5L1358.5 294.5L1320.5 256.5" stroke-width="3.17" stroke="#3a7cc3"></path><path d="M1353.75 332.5 a4.75 4.75 0 1 0 9.5 0 a4.75 4.75 0 1 0 -9.5 0zM1315.75 256.5 a4.75 4.75 0 1 0 9.5 0 a4.75 4.75 0 1 0 -9.5 0z" fill="#3a7cc3"></path><path d="M446.5 484.5L503.5 484.5" stroke-width="3.17" stroke="#3a7cc3"></path><path d="M441.75 484.5 a4.75 4.75 0 1 0 9.5 0 a4.75 4.75 0 1 0 -9.5 0zM498.75 484.5 a4.75 4.75 0 1 0 9.5 0 a4.75 4.75 0 1 0 -9.5 0z" fill="#3a7cc3"></path><path d="M142.5 541.5L123.5 522.5L104.5 522.5" stroke-width="3.17" stroke="#3a7cc3"></path><path d="M137.75 541.5 a4.75 4.75 0 1 0 9.5 0 a4.75 4.75 0 1 0 -9.5 0zM99.75 522.5 a4.75 4.75 0 1 0 9.5 0 a4.75 4.75 0 1 0 -9.5 0z" fill="#3a7cc3"></path><path d="M237.5 9.5L237.5 28.5L275.5 66.5" stroke-width="3.17" stroke="#3a7cc3"></path><path d="M232.75 9.5 a4.75 4.75 0 1 0 9.5 0 a4.75 4.75 0 1 0 -9.5 0zM270.75 66.5 a4.75 4.75 0 1 0 9.5 0 a4.75 4.75 0 1 0 -9.5 0z" fill="#3a7cc3"></path><path d="M199.5 427.5L142.5 484.5L142.5 503.5L161.5 522.5L199.5 522.5L237.5 484.5L256.5 484.5" stroke-width="3.17" stroke="#3a7cc3"></path><path d="M194.75 427.5 a4.75 4.75 0 1 0 9.5 0 a4.75 4.75 0 1 0 -9.5 0zM251.75 484.5 a4.75 4.75 0 1 0 9.5 0 a4.75 4.75 0 1 0 -9.5 0z" fill="#3a7cc3"></path><path d="M579.5 541.5L541.5 503.5" stroke-width="3.17" stroke="#3a7cc3"></path><path d="M574.75 541.5 a4.75 4.75 0 1 0 9.5 0 a4.75 4.75 0 1 0 -9.5 0zM536.75 503.5 a4.75 4.75 0 1 0 9.5 0 a4.75 4.75 0 1 0 -9.5 0z" fill="#3a7cc3"></path><path d="M1396.5 294.5L1415.5 313.5L1415.5 332.5" stroke-width="3.17" stroke="#3a7cc3"></path><path d="M1391.75 294.5 a4.75 4.75 0 1 0 9.5 0 a4.75 4.75 0 1 0 -9.5 0zM1410.75 332.5 a4.75 4.75 0 1 0 9.5 0 a4.75 4.75 0 1 0 -9.5 0z" fill="#3a7cc3"></path><path d="M598.5 218.5L579.5 218.5L560.5 237.5L560.5 256.5" stroke-width="3.17" stroke="#3a7cc3"></path><path d="M593.75 218.5 a4.75 4.75 0 1 0 9.5 0 a4.75 4.75 0 1 0 -9.5 0zM555.75 256.5 a4.75 4.75 0 1 0 9.5 0 a4.75 4.75 0 1 0 -9.5 0z" fill="#3a7cc3"></path><path d="M1225.5 161.5L1244.5 142.5L1244.5 123.5" stroke-width="3.17" stroke="#3a7cc3"></path><path d="M1220.75 161.5 a4.75 4.75 0 1 0 9.5 0 a4.75 4.75 0 1 0 -9.5 0zM1239.75 123.5 a4.75 4.75 0 1 0 9.5 0 a4.75 4.75 0 1 0 -9.5 0z" fill="#3a7cc3"></path><path d="M104.5 541.5L123.5 541.5L142.5 560.5L161.5 560.5" stroke-width="3.17" stroke="#3a7cc3"></path><path d="M99.75 541.5 a4.75 4.75 0 1 0 9.5 0 a4.75 4.75 0 1 0 -9.5 0zM156.75 560.5 a4.75 4.75 0 1 0 9.5 0 a4.75 4.75 0 1 0 -9.5 0z" fill="#3a7cc3"></path><path d="M655.5 161.5L655.5 142.5L674.5 123.5" stroke-width="3.17" stroke="#3a7cc3"></path><path d="M650.75 161.5 a4.75 4.75 0 1 0 9.5 0 a4.75 4.75 0 1 0 -9.5 0zM669.75 123.5 a4.75 4.75 0 1 0 9.5 0 a4.75 4.75 0 1 0 -9.5 0z" fill="#3a7cc3"></path><path d="M560.5 85.5L541.5 85.5L522.5 66.5" stroke-width="3.17" stroke="#3a7cc3"></path><path d="M555.75 85.5 a4.75 4.75 0 1 0 9.5 0 a4.75 4.75 0 1 0 -9.5 0zM517.75 66.5 a4.75 4.75 0 1 0 9.5 0 a4.75 4.75 0 1 0 -9.5 0z" fill="#3a7cc3"></path><path d="M446.5 503.5L503.5 503.5L522.5 522.5" stroke-width="3.17" stroke="#3a7cc3"></path><path d="M441.75 503.5 a4.75 4.75 0 1 0 9.5 0 a4.75 4.75 0 1 0 -9.5 0zM517.75 522.5 a4.75 4.75 0 1 0 9.5 0 a4.75 4.75 0 1 0 -9.5 0z" fill="#3a7cc3"></path><path d="M104.5 218.5L104.5 294.5" stroke-width="3.17" stroke="#3a7cc3"></path><path d="M99.75 218.5 a4.75 4.75 0 1 0 9.5 0 a4.75 4.75 0 1 0 -9.5 0zM99.75 294.5 a4.75 4.75 0 1 0 9.5 0 a4.75 4.75 0 1 0 -9.5 0z" fill="#3a7cc3"></path><path d="M199.5 123.5L199.5 85.5" stroke-width="3.17" stroke="#3a7cc3"></path><path d="M194.75 123.5 a4.75 4.75 0 1 0 9.5 0 a4.75 4.75 0 1 0 -9.5 0zM194.75 85.5 a4.75 4.75 0 1 0 9.5 0 a4.75 4.75 0 1 0 -9.5 0z" fill="#3a7cc3"></path><path d="M978.5 256.5L1016.5 256.5" stroke-width="3.17" stroke="#3a7cc3"></path><path d="M973.75 256.5 a4.75 4.75 0 1 0 9.5 0 a4.75 4.75 0 1 0 -9.5 0zM1011.75 256.5 a4.75 4.75 0 1 0 9.5 0 a4.75 4.75 0 1 0 -9.5 0z" fill="#3a7cc3"></path><path d="M731.5 28.5L693.5 28.5L674.5 47.5" stroke-width="3.17" stroke="#3a7cc3"></path><path d="M726.75 28.5 a4.75 4.75 0 1 0 9.5 0 a4.75 4.75 0 1 0 -9.5 0zM669.75 47.5 a4.75 4.75 0 1 0 9.5 0 a4.75 4.75 0 1 0 -9.5 0z" fill="#3a7cc3"></path><path d="M1244.5 47.5L1282.5 47.5" stroke-width="3.17" stroke="#3a7cc3"></path><path d="M1239.75 47.5 a4.75 4.75 0 1 0 9.5 0 a4.75 4.75 0 1 0 -9.5 0zM1277.75 47.5 a4.75 4.75 0 1 0 9.5 0 a4.75 4.75 0 1 0 -9.5 0z" fill="#3a7cc3"></path><path d="M617.5 427.5L598.5 427.5L579.5 446.5" stroke-width="3.17" stroke="#3a7cc3"></path><path d="M612.75 427.5 a4.75 4.75 0 1 0 9.5 0 a4.75 4.75 0 1 0 -9.5 0zM574.75 446.5 a4.75 4.75 0 1 0 9.5 0 a4.75 4.75 0 1 0 -9.5 0z" fill="#3a7cc3"></path><path d="M1434.5 465.5L1434.5 427.5" stroke-width="3.17" stroke="#3a7cc3"></path><path d="M1429.75 465.5 a4.75 4.75 0 1 0 9.5 0 a4.75 4.75 0 1 0 -9.5 0zM1429.75 427.5 a4.75 4.75 0 1 0 9.5 0 a4.75 4.75 0 1 0 -9.5 0z" fill="#3a7cc3"></path><path d="M1206.5 161.5L1225.5 142.5L1225.5 123.5" stroke-width="3.17" stroke="#3a7cc3"></path><path d="M1201.75 161.5 a4.75 4.75 0 1 0 9.5 0 a4.75 4.75 0 1 0 -9.5 0zM1220.75 123.5 a4.75 4.75 0 1 0 9.5 0 a4.75 4.75 0 1 0 -9.5 0z" fill="#3a7cc3"></path><path d="M351.5 313.5L332.5 294.5L332.5 275.5" stroke-width="3.17" stroke="#3a7cc3"></path><path d="M346.75 313.5 a4.75 4.75 0 1 0 9.5 0 a4.75 4.75 0 1 0 -9.5 0zM327.75 275.5 a4.75 4.75 0 1 0 9.5 0 a4.75 4.75 0 1 0 -9.5 0z" fill="#3a7cc3"></path><path d="M1130.5 408.5L1130.5 351.5" stroke-width="3.17" stroke="#3a7cc3"></path><path d="M1125.75 408.5 a4.75 4.75 0 1 0 9.5 0 a4.75 4.75 0 1 0 -9.5 0zM1125.75 351.5 a4.75 4.75 0 1 0 9.5 0 a4.75 4.75 0 1 0 -9.5 0z" fill="#3a7cc3"></path><path d="M997.5 541.5L1054.5 541.5" stroke-width="3.17" stroke="#3a7cc3"></path><path d="M992.75 541.5 a4.75 4.75 0 1 0 9.5 0 a4.75 4.75 0 1 0 -9.5 0zM1049.75 541.5 a4.75 4.75 0 1 0 9.5 0 a4.75 4.75 0 1 0 -9.5 0z" fill="#3a7cc3"></path><path d="M408.5 142.5L389.5 161.5L389.5 180.5" stroke-width="3.17" stroke="#3a7cc3"></path><path d="M403.75 142.5 a4.75 4.75 0 1 0 9.5 0 a4.75 4.75 0 1 0 -9.5 0zM384.75 180.5 a4.75 4.75 0 1 0 9.5 0 a4.75 4.75 0 1 0 -9.5 0z" fill="#3a7cc3"></path><path d="M142.5 123.5L104.5 123.5" stroke-width="3.17" stroke="#3a7cc3"></path><path d="M137.75 123.5 a4.75 4.75 0 1 0 9.5 0 a4.75 4.75 0 1 0 -9.5 0zM99.75 123.5 a4.75 4.75 0 1 0 9.5 0 a4.75 4.75 0 1 0 -9.5 0z" fill="#3a7cc3"></path><path d="M921.5 522.5L902.5 541.5L883.5 541.5" stroke-width="3.17" stroke="#3a7cc3"></path><path d="M916.75 522.5 a4.75 4.75 0 1 0 9.5 0 a4.75 4.75 0 1 0 -9.5 0zM878.75 541.5 a4.75 4.75 0 1 0 9.5 0 a4.75 4.75 0 1 0 -9.5 0z" fill="#3a7cc3"></path><path d="M1301.5 218.5L1320.5 218.5L1339.5 199.5L1377.5 199.5" stroke-width="3.17" stroke="#3a7cc3"></path><path d="M1296.75 218.5 a4.75 4.75 0 1 0 9.5 0 a4.75 4.75 0 1 0 -9.5 0zM1372.75 199.5 a4.75 4.75 0 1 0 9.5 0 a4.75 4.75 0 1 0 -9.5 0z" fill="#3a7cc3"></path><path d="M731.5 522.5L712.5 522.5L693.5 503.5" stroke-width="3.17" stroke="#3a7cc3"></path><path d="M726.75 522.5 a4.75 4.75 0 1 0 9.5 0 a4.75 4.75 0 1 0 -9.5 0zM688.75 503.5 a4.75 4.75 0 1 0 9.5 0 a4.75 4.75 0 1 0 -9.5 0z" fill="#3a7cc3"></path><path d="M731.5 446.5L769.5 446.5" stroke-width="3.17" stroke="#3a7cc3"></path><path d="M726.75 446.5 a4.75 4.75 0 1 0 9.5 0 a4.75 4.75 0 1 0 -9.5 0zM764.75 446.5 a4.75 4.75 0 1 0 9.5 0 a4.75 4.75 0 1 0 -9.5 0z" fill="#3a7cc3"></path><path d="M902.5 199.5L921.5 218.5L959.5 218.5" stroke-width="3.17" stroke="#3a7cc3"></path><path d="M897.75 199.5 a4.75 4.75 0 1 0 9.5 0 a4.75 4.75 0 1 0 -9.5 0zM954.75 218.5 a4.75 4.75 0 1 0 9.5 0 a4.75 4.75 0 1 0 -9.5 0z" fill="#3a7cc3"></path><path d="M237.5 446.5L237.5 465.5L218.5 484.5" stroke-width="3.17" stroke="#3a7cc3"></path><path d="M232.75 446.5 a4.75 4.75 0 1 0 9.5 0 a4.75 4.75 0 1 0 -9.5 0zM213.75 484.5 a4.75 4.75 0 1 0 9.5 0 a4.75 4.75 0 1 0 -9.5 0z" fill="#3a7cc3"></path><path d="M1092.5 560.5L1111.5 541.5L1149.5 541.5" stroke-width="3.17" stroke="#3a7cc3"></path><path d="M1087.75 560.5 a4.75 4.75 0 1 0 9.5 0 a4.75 4.75 0 1 0 -9.5 0zM1144.75 541.5 a4.75 4.75 0 1 0 9.5 0 a4.75 4.75 0 1 0 -9.5 0z" fill="#3a7cc3"></path><path d="M484.5 85.5L465.5 104.5L465.5 123.5" stroke-width="3.17" stroke="#3a7cc3"></path><path d="M479.75 85.5 a4.75 4.75 0 1 0 9.5 0 a4.75 4.75 0 1 0 -9.5 0zM460.75 123.5 a4.75 4.75 0 1 0 9.5 0 a4.75 4.75 0 1 0 -9.5 0z" fill="#3a7cc3"></path><path d="M579.5 408.5L560.5 427.5L522.5 427.5" stroke-width="3.17" stroke="#3a7cc3"></path><path d="M574.75 408.5 a4.75 4.75 0 1 0 9.5 0 a4.75 4.75 0 1 0 -9.5 0zM517.75 427.5 a4.75 4.75 0 1 0 9.5 0 a4.75 4.75 0 1 0 -9.5 0z" fill="#3a7cc3"></path><path d="M1111.5 560.5L1149.5 560.5" stroke-width="3.17" stroke="#3a7cc3"></path><path d="M1106.75 560.5 a4.75 4.75 0 1 0 9.5 0 a4.75 4.75 0 1 0 -9.5 0zM1144.75 560.5 a4.75 4.75 0 1 0 9.5 0 a4.75 4.75 0 1 0 -9.5 0z" fill="#3a7cc3"></path><path d="M275.5 47.5L275.5 9.5" stroke-width="3.17" stroke="#3a7cc3"></path><path d="M270.75 47.5 a4.75 4.75 0 1 0 9.5 0 a4.75 4.75 0 1 0 -9.5 0zM270.75 9.5 a4.75 4.75 0 1 0 9.5 0 a4.75 4.75 0 1 0 -9.5 0z" fill="#3a7cc3"></path><path d="M28.5 275.5L28.5 237.5" stroke-width="3.17" stroke="#3a7cc3"></path><path d="M23.75 275.5 a4.75 4.75 0 1 0 9.5 0 a4.75 4.75 0 1 0 -9.5 0zM23.75 237.5 a4.75 4.75 0 1 0 9.5 0 a4.75 4.75 0 1 0 -9.5 0z" fill="#3a7cc3"></path><path d="M389.5 142.5L389.5 104.5" stroke-width="3.17" stroke="#3a7cc3"></path><path d="M384.75 142.5 a4.75 4.75 0 1 0 9.5 0 a4.75 4.75 0 1 0 -9.5 0zM384.75 104.5 a4.75 4.75 0 1 0 9.5 0 a4.75 4.75 0 1 0 -9.5 0z" fill="#3a7cc3"></path><path d="M427.5 66.5L427.5 123.5" stroke-width="3.17" stroke="#3a7cc3"></path><path d="M422.75 66.5 a4.75 4.75 0 1 0 9.5 0 a4.75 4.75 0 1 0 -9.5 0zM422.75 123.5 a4.75 4.75 0 1 0 9.5 0 a4.75 4.75 0 1 0 -9.5 0z" fill="#3a7cc3"></path></g></g><defs><mask id="SvgjsMask1004"><rect width="1440" height="560" fill="#ffffff"></rect></mask><mask id="SvgjsMask1005"><rect width="1440" height="560" fill="white"></rect><path d="M197.12 66.5 a2.38 2.38 0 1 0 4.76 0 a2.38 2.38 0 1 0 -4.76 0zM7.12 9.5 a2.38 2.38 0 1 0 4.76 0 a2.38 2.38 0 1 0 -4.76 0z" fill="black"></path><path d="M7.12 446.5 a2.38 2.38 0 1 0 4.76 0 a2.38 2.38 0 1 0 -4.76 0zM330.12 85.5 a2.38 2.38 0 1 0 4.76 0 a2.38 2.38 0 1 0 -4.76 0z" fill="black"></path><path d="M311.12 351.5 a2.38 2.38 0 1 0 4.76 0 a2.38 2.38 0 1 0 -4.76 0zM7.12 560.5 a2.38 2.38 0 1 0 4.76 0 a2.38 2.38 0 1 0 -4.76 0z" fill="black"></path><path d="M83.12 199.5 a2.38 2.38 0 1 0 4.76 0 a2.38 2.38 0 1 0 -4.76 0zM7.12 427.5 a2.38 2.38 0 1 0 4.76 0 a2.38 2.38 0 1 0 -4.76 0z" fill="black"></path><path d="M1337.12 28.5 a2.38 2.38 0 1 0 4.76 0 a2.38 2.38 0 1 0 -4.76 0zM1432.12 9.5 a2.38 2.38 0 1 0 4.76 0 a2.38 2.38 0 1 0 -4.76 0z" fill="black"></path><path d="M83.12 47.5 a2.38 2.38 0 1 0 4.76 0 a2.38 2.38 0 1 0 -4.76 0zM7.12 28.5 a2.38 2.38 0 1 0 4.76 0 a2.38 2.38 0 1 0 -4.76 0z" fill="black"></path><path d="M1261.12 408.5 a2.38 2.38 0 1 0 4.76 0 a2.38 2.38 0 1 0 -4.76 0zM1261.12 560.5 a2.38 2.38 0 1 0 4.76 0 a2.38 2.38 0 1 0 -4.76 0z" fill="black"></path><path d="M1299.12 294.5 a2.38 2.38 0 1 0 4.76 0 a2.38 2.38 0 1 0 -4.76 0zM1109.12 9.5 a2.38 2.38 0 1 0 4.76 0 a2.38 2.38 0 1 0 -4.76 0z" fill="black"></path><path d="M539.12 484.5 a2.38 2.38 0 1 0 4.76 0 a2.38 2.38 0 1 0 -4.76 0zM881.12 465.5 a2.38 2.38 0 1 0 4.76 0 a2.38 2.38 0 1 0 -4.76 0z" fill="black"></path><path d="M1204.12 370.5 a2.38 2.38 0 1 0 4.76 0 a2.38 2.38 0 1 0 -4.76 0zM1394.12 560.5 a2.38 2.38 0 1 0 4.76 0 a2.38 2.38 0 1 0 -4.76 0z" fill="black"></path><path d="M1090.12 256.5 a2.38 2.38 0 1 0 4.76 0 a2.38 2.38 0 1 0 -4.76 0zM1166.12 180.5 a2.38 2.38 0 1 0 4.76 0 a2.38 2.38 0 1 0 -4.76 0z" fill="black"></path><path d="M1128.12 484.5 a2.38 2.38 0 1 0 4.76 0 a2.38 2.38 0 1 0 -4.76 0zM805.12 522.5 a2.38 2.38 0 1 0 4.76 0 a2.38 2.38 0 1 0 -4.76 0z" fill="black"></path><path d="M520.12 161.5 a2.38 2.38 0 1 0 4.76 0 a2.38 2.38 0 1 0 -4.76 0zM292.12 503.5 a2.38 2.38 0 1 0 4.76 0 a2.38 2.38 0 1 0 -4.76 0z" fill="black"></path><path d="M1014.12 180.5 a2.38 2.38 0 1 0 4.76 0 a2.38 2.38 0 1 0 -4.76 0zM786.12 332.5 a2.38 2.38 0 1 0 4.76 0 a2.38 2.38 0 1 0 -4.76 0z" fill="black"></path><path d="M1185.12 313.5 a2.38 2.38 0 1 0 4.76 0 a2.38 2.38 0 1 0 -4.76 0zM1185.12 199.5 a2.38 2.38 0 1 0 4.76 0 a2.38 2.38 0 1 0 -4.76 0z" fill="black"></path><path d="M1185.12 484.5 a2.38 2.38 0 1 0 4.76 0 a2.38 2.38 0 1 0 -4.76 0zM1242.12 560.5 a2.38 2.38 0 1 0 4.76 0 a2.38 2.38 0 1 0 -4.76 0z" fill="black"></path><path d="M501.12 104.5 a2.38 2.38 0 1 0 4.76 0 a2.38 2.38 0 1 0 -4.76 0zM330.12 465.5 a2.38 2.38 0 1 0 4.76 0 a2.38 2.38 0 1 0 -4.76 0z" fill="black"></path><path d="M406.12 446.5 a2.38 2.38 0 1 0 4.76 0 a2.38 2.38 0 1 0 -4.76 0zM368.12 560.5 a2.38 2.38 0 1 0 4.76 0 a2.38 2.38 0 1 0 -4.76 0z" fill="black"></path><path d="M254.12 465.5 a2.38 2.38 0 1 0 4.76 0 a2.38 2.38 0 1 0 -4.76 0zM254.12 370.5 a2.38 2.38 0 1 0 4.76 0 a2.38 2.38 0 1 0 -4.76 0z" fill="black"></path><path d="M1318.12 522.5 a2.38 2.38 0 1 0 4.76 0 a2.38 2.38 0 1 0 -4.76 0zM1318.12 560.5 a2.38 2.38 0 1 0 4.76 0 a2.38 2.38 0 1 0 -4.76 0z" fill="black"></path><path d="M919.12 484.5 a2.38 2.38 0 1 0 4.76 0 a2.38 2.38 0 1 0 -4.76 0zM1071.12 446.5 a2.38 2.38 0 1 0 4.76 0 a2.38 2.38 0 1 0 -4.76 0z" fill="black"></path><path d="M919.12 351.5 a2.38 2.38 0 1 0 4.76 0 a2.38 2.38 0 1 0 -4.76 0zM596.12 85.5 a2.38 2.38 0 1 0 4.76 0 a2.38 2.38 0 1 0 -4.76 0z" fill="black"></path><path d="M406.12 47.5 a2.38 2.38 0 1 0 4.76 0 a2.38 2.38 0 1 0 -4.76 0zM368.12 408.5 a2.38 2.38 0 1 0 4.76 0 a2.38 2.38 0 1 0 -4.76 0z" fill="black"></path><path d="M102.12 161.5 a2.38 2.38 0 1 0 4.76 0 a2.38 2.38 0 1 0 -4.76 0zM311.12 9.5 a2.38 2.38 0 1 0 4.76 0 a2.38 2.38 0 1 0 -4.76 0z" fill="black"></path><path d="M710.12 218.5 a2.38 2.38 0 1 0 4.76 0 a2.38 2.38 0 1 0 -4.76 0zM1052.12 237.5 a2.38 2.38 0 1 0 4.76 0 a2.38 2.38 0 1 0 -4.76 0z" fill="black"></path><path d="M1413.12 142.5 a2.38 2.38 0 1 0 4.76 0 a2.38 2.38 0 1 0 -4.76 0zM1223.12 199.5 a2.38 2.38 0 1 0 4.76 0 a2.38 2.38 0 1 0 -4.76 0z" fill="black"></path><path d="M1280.12 180.5 a2.38 2.38 0 1 0 4.76 0 a2.38 2.38 0 1 0 -4.76 0zM1432.12 408.5 a2.38 2.38 0 1 0 4.76 0 a2.38 2.38 0 1 0 -4.76 0z" fill="black"></path><path d="M26.12 503.5 a2.38 2.38 0 1 0 4.76 0 a2.38 2.38 0 1 0 -4.76 0zM7.12 541.5 a2.38 2.38 0 1 0 4.76 0 a2.38 2.38 0 1 0 -4.76 0z" fill="black"></path><path d="M615.12 465.5 a2.38 2.38 0 1 0 4.76 0 a2.38 2.38 0 1 0 -4.76 0zM558.12 104.5 a2.38 2.38 0 1 0 4.76 0 a2.38 2.38 0 1 0 -4.76 0z" fill="black"></path><path d="M140.12 104.5 a2.38 2.38 0 1 0 4.76 0 a2.38 2.38 0 1 0 -4.76 0zM292.12 9.5 a2.38 2.38 0 1 0 4.76 0 a2.38 2.38 0 1 0 -4.76 0z" fill="black"></path><path d="M1280.12 104.5 a2.38 2.38 0 1 0 4.76 0 a2.38 2.38 0 1 0 -4.76 0zM1432.12 123.5 a2.38 2.38 0 1 0 4.76 0 a2.38 2.38 0 1 0 -4.76 0z" fill="black"></path><path d="M1033.12 104.5 a2.38 2.38 0 1 0 4.76 0 a2.38 2.38 0 1 0 -4.76 0zM1071.12 9.5 a2.38 2.38 0 1 0 4.76 0 a2.38 2.38 0 1 0 -4.76 0z" fill="black"></path><path d="M1014.12 142.5 a2.38 2.38 0 1 0 4.76 0 a2.38 2.38 0 1 0 -4.76 0zM653.12 85.5 a2.38 2.38 0 1 0 4.76 0 a2.38 2.38 0 1 0 -4.76 0z" fill="black"></path><path d="M330.12 9.5 a2.38 2.38 0 1 0 4.76 0 a2.38 2.38 0 1 0 -4.76 0zM349.12 85.5 a2.38 2.38 0 1 0 4.76 0 a2.38 2.38 0 1 0 -4.76 0z" fill="black"></path><path d="M1356.12 370.5 a2.38 2.38 0 1 0 4.76 0 a2.38 2.38 0 1 0 -4.76 0zM1432.12 370.5 a2.38 2.38 0 1 0 4.76 0 a2.38 2.38 0 1 0 -4.76 0z" fill="black"></path><path d="M140.12 237.5 a2.38 2.38 0 1 0 4.76 0 a2.38 2.38 0 1 0 -4.76 0zM178.12 256.5 a2.38 2.38 0 1 0 4.76 0 a2.38 2.38 0 1 0 -4.76 0z" fill="black"></path><path d="M1147.12 237.5 a2.38 2.38 0 1 0 4.76 0 a2.38 2.38 0 1 0 -4.76 0zM1033.12 389.5 a2.38 2.38 0 1 0 4.76 0 a2.38 2.38 0 1 0 -4.76 0z" fill="black"></path><path d="M178.12 85.5 a2.38 2.38 0 1 0 4.76 0 a2.38 2.38 0 1 0 -4.76 0zM121.12 9.5 a2.38 2.38 0 1 0 4.76 0 a2.38 2.38 0 1 0 -4.76 0z" fill="black"></path><path d="M273.12 199.5 a2.38 2.38 0 1 0 4.76 0 a2.38 2.38 0 1 0 -4.76 0zM330.12 142.5 a2.38 2.38 0 1 0 4.76 0 a2.38 2.38 0 1 0 -4.76 0z" fill="black"></path><path d="M634.12 275.5 a2.38 2.38 0 1 0 4.76 0 a2.38 2.38 0 1 0 -4.76 0zM349.12 9.5 a2.38 2.38 0 1 0 4.76 0 a2.38 2.38 0 1 0 -4.76 0z" fill="black"></path><path d="M577.12 275.5 a2.38 2.38 0 1 0 4.76 0 a2.38 2.38 0 1 0 -4.76 0zM463.12 465.5 a2.38 2.38 0 1 0 4.76 0 a2.38 2.38 0 1 0 -4.76 0z" fill="black"></path><path d="M539.12 541.5 a2.38 2.38 0 1 0 4.76 0 a2.38 2.38 0 1 0 -4.76 0zM387.12 560.5 a2.38 2.38 0 1 0 4.76 0 a2.38 2.38 0 1 0 -4.76 0z" fill="black"></path><path d="M1299.12 408.5 a2.38 2.38 0 1 0 4.76 0 a2.38 2.38 0 1 0 -4.76 0zM1242.12 522.5 a2.38 2.38 0 1 0 4.76 0 a2.38 2.38 0 1 0 -4.76 0z" fill="black"></path><path d="M767.12 408.5 a2.38 2.38 0 1 0 4.76 0 a2.38 2.38 0 1 0 -4.76 0zM881.12 408.5 a2.38 2.38 0 1 0 4.76 0 a2.38 2.38 0 1 0 -4.76 0z" fill="black"></path><path d="M1318.12 275.5 a2.38 2.38 0 1 0 4.76 0 a2.38 2.38 0 1 0 -4.76 0zM1261.12 199.5 a2.38 2.38 0 1 0 4.76 0 a2.38 2.38 0 1 0 -4.76 0z" fill="black"></path><path d="M1071.12 104.5 a2.38 2.38 0 1 0 4.76 0 a2.38 2.38 0 1 0 -4.76 0zM1147.12 180.5 a2.38 2.38 0 1 0 4.76 0 a2.38 2.38 0 1 0 -4.76 0z" fill="black"></path><path d="M710.12 313.5 a2.38 2.38 0 1 0 4.76 0 a2.38 2.38 0 1 0 -4.76 0zM672.12 218.5 a2.38 2.38 0 1 0 4.76 0 a2.38 2.38 0 1 0 -4.76 0z" fill="black"></path><path d="M691.12 465.5 a2.38 2.38 0 1 0 4.76 0 a2.38 2.38 0 1 0 -4.76 0zM843.12 446.5 a2.38 2.38 0 1 0 4.76 0 a2.38 2.38 0 1 0 -4.76 0z" fill="black"></path><path d="M1223.12 351.5 a2.38 2.38 0 1 0 4.76 0 a2.38 2.38 0 1 0 -4.76 0zM1318.12 313.5 a2.38 2.38 0 1 0 4.76 0 a2.38 2.38 0 1 0 -4.76 0z" fill="black"></path><path d="M653.12 123.5 a2.38 2.38 0 1 0 4.76 0 a2.38 2.38 0 1 0 -4.76 0zM482.12 9.5 a2.38 2.38 0 1 0 4.76 0 a2.38 2.38 0 1 0 -4.76 0z" fill="black"></path><path d="M1223.12 47.5 a2.38 2.38 0 1 0 4.76 0 a2.38 2.38 0 1 0 -4.76 0zM1128.12 9.5 a2.38 2.38 0 1 0 4.76 0 a2.38 2.38 0 1 0 -4.76 0z" fill="black"></path><path d="M710.12 66.5 a2.38 2.38 0 1 0 4.76 0 a2.38 2.38 0 1 0 -4.76 0zM501.12 9.5 a2.38 2.38 0 1 0 4.76 0 a2.38 2.38 0 1 0 -4.76 0z" fill="black"></path><path d="M729.12 427.5 a2.38 2.38 0 1 0 4.76 0 a2.38 2.38 0 1 0 -4.76 0zM748.12 294.5 a2.38 2.38 0 1 0 4.76 0 a2.38 2.38 0 1 0 -4.76 0z" fill="black"></path><path d="M976.12 465.5 a2.38 2.38 0 1 0 4.76 0 a2.38 2.38 0 1 0 -4.76 0zM957.12 427.5 a2.38 2.38 0 1 0 4.76 0 a2.38 2.38 0 1 0 -4.76 0z" fill="black"></path><path d="M1033.12 465.5 a2.38 2.38 0 1 0 4.76 0 a2.38 2.38 0 1 0 -4.76 0zM976.12 427.5 a2.38 2.38 0 1 0 4.76 0 a2.38 2.38 0 1 0 -4.76 0z" fill="black"></path><path d="M64.12 446.5 a2.38 2.38 0 1 0 4.76 0 a2.38 2.38 0 1 0 -4.76 0zM7.12 484.5 a2.38 2.38 0 1 0 4.76 0 a2.38 2.38 0 1 0 -4.76 0z" fill="black"></path><path d="M1394.12 332.5 a2.38 2.38 0 1 0 4.76 0 a2.38 2.38 0 1 0 -4.76 0zM1356.12 351.5 a2.38 2.38 0 1 0 4.76 0 a2.38 2.38 0 1 0 -4.76 0z" fill="black"></path><path d="M824.12 351.5 a2.38 2.38 0 1 0 4.76 0 a2.38 2.38 0 1 0 -4.76 0zM1052.12 256.5 a2.38 2.38 0 1 0 4.76 0 a2.38 2.38 0 1 0 -4.76 0z" fill="black"></path><path d="M577.12 294.5 a2.38 2.38 0 1 0 4.76 0 a2.38 2.38 0 1 0 -4.76 0zM387.12 541.5 a2.38 2.38 0 1 0 4.76 0 a2.38 2.38 0 1 0 -4.76 0z" fill="black"></path><path d="M805.12 199.5 a2.38 2.38 0 1 0 4.76 0 a2.38 2.38 0 1 0 -4.76 0zM691.12 85.5 a2.38 2.38 0 1 0 4.76 0 a2.38 2.38 0 1 0 -4.76 0z" fill="black"></path><path d="M159.12 389.5 a2.38 2.38 0 1 0 4.76 0 a2.38 2.38 0 1 0 -4.76 0zM425.12 332.5 a2.38 2.38 0 1 0 4.76 0 a2.38 2.38 0 1 0 -4.76 0z" fill="black"></path><path d="M83.12 427.5 a2.38 2.38 0 1 0 4.76 0 a2.38 2.38 0 1 0 -4.76 0zM140.12 332.5 a2.38 2.38 0 1 0 4.76 0 a2.38 2.38 0 1 0 -4.76 0z" fill="black"></path><path d="M900.12 47.5 a2.38 2.38 0 1 0 4.76 0 a2.38 2.38 0 1 0 -4.76 0zM1090.12 237.5 a2.38 2.38 0 1 0 4.76 0 a2.38 2.38 0 1 0 -4.76 0z" fill="black"></path><path d="M1223.12 85.5 a2.38 2.38 0 1 0 4.76 0 a2.38 2.38 0 1 0 -4.76 0zM1432.12 85.5 a2.38 2.38 0 1 0 4.76 0 a2.38 2.38 0 1 0 -4.76 0z" fill="black"></path><path d="M1204.12 408.5 a2.38 2.38 0 1 0 4.76 0 a2.38 2.38 0 1 0 -4.76 0zM1242.12 503.5 a2.38 2.38 0 1 0 4.76 0 a2.38 2.38 0 1 0 -4.76 0z" fill="black"></path><path d="M387.12 313.5 a2.38 2.38 0 1 0 4.76 0 a2.38 2.38 0 1 0 -4.76 0zM178.12 370.5 a2.38 2.38 0 1 0 4.76 0 a2.38 2.38 0 1 0 -4.76 0z" fill="black"></path><path d="M1014.12 427.5 a2.38 2.38 0 1 0 4.76 0 a2.38 2.38 0 1 0 -4.76 0zM1052.12 446.5 a2.38 2.38 0 1 0 4.76 0 a2.38 2.38 0 1 0 -4.76 0z" fill="black"></path><path d="M1432.12 28.5 a2.38 2.38 0 1 0 4.76 0 a2.38 2.38 0 1 0 -4.76 0zM1128.12 66.5 a2.38 2.38 0 1 0 4.76 0 a2.38 2.38 0 1 0 -4.76 0z" fill="black"></path><path d="M1014.12 9.5 a2.38 2.38 0 1 0 4.76 0 a2.38 2.38 0 1 0 -4.76 0zM1052.12 9.5 a2.38 2.38 0 1 0 4.76 0 a2.38 2.38 0 1 0 -4.76 0z" fill="black"></path><path d="M710.12 47.5 a2.38 2.38 0 1 0 4.76 0 a2.38 2.38 0 1 0 -4.76 0zM1052.12 66.5 a2.38 2.38 0 1 0 4.76 0 a2.38 2.38 0 1 0 -4.76 0z" fill="black"></path><path d="M596.12 541.5 a2.38 2.38 0 1 0 4.76 0 a2.38 2.38 0 1 0 -4.76 0zM596.12 503.5 a2.38 2.38 0 1 0 4.76 0 a2.38 2.38 0 1 0 -4.76 0z" fill="black"></path><path d="M121.12 503.5 a2.38 2.38 0 1 0 4.76 0 a2.38 2.38 0 1 0 -4.76 0zM349.12 560.5 a2.38 2.38 0 1 0 4.76 0 a2.38 2.38 0 1 0 -4.76 0z" fill="black"></path><path d="M311.12 446.5 a2.38 2.38 0 1 0 4.76 0 a2.38 2.38 0 1 0 -4.76 0zM406.12 332.5 a2.38 2.38 0 1 0 4.76 0 a2.38 2.38 0 1 0 -4.76 0z" fill="black"></path><path d="M235.12 66.5 a2.38 2.38 0 1 0 4.76 0 a2.38 2.38 0 1 0 -4.76 0zM254.12 123.5 a2.38 2.38 0 1 0 4.76 0 a2.38 2.38 0 1 0 -4.76 0z" fill="black"></path><path d="M1033.12 142.5 a2.38 2.38 0 1 0 4.76 0 a2.38 2.38 0 1 0 -4.76 0zM1090.12 218.5 a2.38 2.38 0 1 0 4.76 0 a2.38 2.38 0 1 0 -4.76 0z" fill="black"></path><path d="M1109.12 484.5 a2.38 2.38 0 1 0 4.76 0 a2.38 2.38 0 1 0 -4.76 0zM1223.12 560.5 a2.38 2.38 0 1 0 4.76 0 a2.38 2.38 0 1 0 -4.76 0z" fill="black"></path><path d="M577.12 332.5 a2.38 2.38 0 1 0 4.76 0 a2.38 2.38 0 1 0 -4.76 0zM653.12 332.5 a2.38 2.38 0 1 0 4.76 0 a2.38 2.38 0 1 0 -4.76 0z" fill="black"></path><path d="M1090.12 503.5 a2.38 2.38 0 1 0 4.76 0 a2.38 2.38 0 1 0 -4.76 0zM1090.12 465.5 a2.38 2.38 0 1 0 4.76 0 a2.38 2.38 0 1 0 -4.76 0z" fill="black"></path><path d="M102.12 28.5 a2.38 2.38 0 1 0 4.76 0 a2.38 2.38 0 1 0 -4.76 0zM159.12 104.5 a2.38 2.38 0 1 0 4.76 0 a2.38 2.38 0 1 0 -4.76 0z" fill="black"></path><path d="M539.12 180.5 a2.38 2.38 0 1 0 4.76 0 a2.38 2.38 0 1 0 -4.76 0zM406.12 427.5 a2.38 2.38 0 1 0 4.76 0 a2.38 2.38 0 1 0 -4.76 0z" fill="black"></path><path d="M881.12 218.5 a2.38 2.38 0 1 0 4.76 0 a2.38 2.38 0 1 0 -4.76 0zM1071.12 218.5 a2.38 2.38 0 1 0 4.76 0 a2.38 2.38 0 1 0 -4.76 0z" fill="black"></path><path d="M178.12 28.5 a2.38 2.38 0 1 0 4.76 0 a2.38 2.38 0 1 0 -4.76 0zM235.12 123.5 a2.38 2.38 0 1 0 4.76 0 a2.38 2.38 0 1 0 -4.76 0z" fill="black"></path><path d="M1299.12 465.5 a2.38 2.38 0 1 0 4.76 0 a2.38 2.38 0 1 0 -4.76 0zM1280.12 408.5 a2.38 2.38 0 1 0 4.76 0 a2.38 2.38 0 1 0 -4.76 0z" fill="black"></path><path d="M1337.12 484.5 a2.38 2.38 0 1 0 4.76 0 a2.38 2.38 0 1 0 -4.76 0zM1337.12 560.5 a2.38 2.38 0 1 0 4.76 0 a2.38 2.38 0 1 0 -4.76 0z" fill="black"></path><path d="M938.12 123.5 a2.38 2.38 0 1 0 4.76 0 a2.38 2.38 0 1 0 -4.76 0zM1014.12 123.5 a2.38 2.38 0 1 0 4.76 0 a2.38 2.38 0 1 0 -4.76 0z" fill="black"></path><path d="M368.12 351.5 a2.38 2.38 0 1 0 4.76 0 a2.38 2.38 0 1 0 -4.76 0zM197.12 351.5 a2.38 2.38 0 1 0 4.76 0 a2.38 2.38 0 1 0 -4.76 0z" fill="black"></path><path d="M1432.12 218.5 a2.38 2.38 0 1 0 4.76 0 a2.38 2.38 0 1 0 -4.76 0zM1280.12 218.5 a2.38 2.38 0 1 0 4.76 0 a2.38 2.38 0 1 0 -4.76 0z" fill="black"></path><path d="M45.12 47.5 a2.38 2.38 0 1 0 4.76 0 a2.38 2.38 0 1 0 -4.76 0zM7.12 389.5 a2.38 2.38 0 1 0 4.76 0 a2.38 2.38 0 1 0 -4.76 0z" fill="black"></path><path d="M1299.12 9.5 a2.38 2.38 0 1 0 4.76 0 a2.38 2.38 0 1 0 -4.76 0zM1299.12 47.5 a2.38 2.38 0 1 0 4.76 0 a2.38 2.38 0 1 0 -4.76 0z" fill="black"></path><path d="M1128.12 180.5 a2.38 2.38 0 1 0 4.76 0 a2.38 2.38 0 1 0 -4.76 0zM1052.12 104.5 a2.38 2.38 0 1 0 4.76 0 a2.38 2.38 0 1 0 -4.76 0z" fill="black"></path><path d="M121.12 161.5 a2.38 2.38 0 1 0 4.76 0 a2.38 2.38 0 1 0 -4.76 0zM235.12 180.5 a2.38 2.38 0 1 0 4.76 0 a2.38 2.38 0 1 0 -4.76 0z" fill="black"></path><path d="M653.12 351.5 a2.38 2.38 0 1 0 4.76 0 a2.38 2.38 0 1 0 -4.76 0zM501.12 541.5 a2.38 2.38 0 1 0 4.76 0 a2.38 2.38 0 1 0 -4.76 0z" fill="black"></path><path d="M710.12 446.5 a2.38 2.38 0 1 0 4.76 0 a2.38 2.38 0 1 0 -4.76 0zM634.12 465.5 a2.38 2.38 0 1 0 4.76 0 a2.38 2.38 0 1 0 -4.76 0z" fill="black"></path><path d="M387.12 275.5 a2.38 2.38 0 1 0 4.76 0 a2.38 2.38 0 1 0 -4.76 0zM425.12 275.5 a2.38 2.38 0 1 0 4.76 0 a2.38 2.38 0 1 0 -4.76 0z" fill="black"></path><path d="M634.12 541.5 a2.38 2.38 0 1 0 4.76 0 a2.38 2.38 0 1 0 -4.76 0zM672.12 503.5 a2.38 2.38 0 1 0 4.76 0 a2.38 2.38 0 1 0 -4.76 0z" fill="black"></path><path d="M273.12 560.5 a2.38 2.38 0 1 0 4.76 0 a2.38 2.38 0 1 0 -4.76 0zM330.12 560.5 a2.38 2.38 0 1 0 4.76 0 a2.38 2.38 0 1 0 -4.76 0z" fill="black"></path><path d="M1242.12 28.5 a2.38 2.38 0 1 0 4.76 0 a2.38 2.38 0 1 0 -4.76 0zM1280.12 9.5 a2.38 2.38 0 1 0 4.76 0 a2.38 2.38 0 1 0 -4.76 0z" fill="black"></path><path d="M311.12 199.5 a2.38 2.38 0 1 0 4.76 0 a2.38 2.38 0 1 0 -4.76 0zM330.12 161.5 a2.38 2.38 0 1 0 4.76 0 a2.38 2.38 0 1 0 -4.76 0z" fill="black"></path><path d="M900.12 484.5 a2.38 2.38 0 1 0 4.76 0 a2.38 2.38 0 1 0 -4.76 0zM539.12 560.5 a2.38 2.38 0 1 0 4.76 0 a2.38 2.38 0 1 0 -4.76 0z" fill="black"></path><path d="M691.12 541.5 a2.38 2.38 0 1 0 4.76 0 a2.38 2.38 0 1 0 -4.76 0zM786.12 541.5 a2.38 2.38 0 1 0 4.76 0 a2.38 2.38 0 1 0 -4.76 0z" fill="black"></path><path d="M938.12 503.5 a2.38 2.38 0 1 0 4.76 0 a2.38 2.38 0 1 0 -4.76 0zM843.12 560.5 a2.38 2.38 0 1 0 4.76 0 a2.38 2.38 0 1 0 -4.76 0z" fill="black"></path><path d="M292.12 275.5 a2.38 2.38 0 1 0 4.76 0 a2.38 2.38 0 1 0 -4.76 0zM254.12 256.5 a2.38 2.38 0 1 0 4.76 0 a2.38 2.38 0 1 0 -4.76 0z" fill="black"></path><path d="M1166.12 313.5 a2.38 2.38 0 1 0 4.76 0 a2.38 2.38 0 1 0 -4.76 0zM1166.12 199.5 a2.38 2.38 0 1 0 4.76 0 a2.38 2.38 0 1 0 -4.76 0z" fill="black"></path><path d="M919.12 560.5 a2.38 2.38 0 1 0 4.76 0 a2.38 2.38 0 1 0 -4.76 0zM1109.12 503.5 a2.38 2.38 0 1 0 4.76 0 a2.38 2.38 0 1 0 -4.76 0z" fill="black"></path><path d="M1052.12 389.5 a2.38 2.38 0 1 0 4.76 0 a2.38 2.38 0 1 0 -4.76 0zM1147.12 256.5 a2.38 2.38 0 1 0 4.76 0 a2.38 2.38 0 1 0 -4.76 0z" fill="black"></path><path d="M862.12 66.5 a2.38 2.38 0 1 0 4.76 0 a2.38 2.38 0 1 0 -4.76 0zM900.12 142.5 a2.38 2.38 0 1 0 4.76 0 a2.38 2.38 0 1 0 -4.76 0z" fill="black"></path><path d="M7.12 47.5 a2.38 2.38 0 1 0 4.76 0 a2.38 2.38 0 1 0 -4.76 0zM7.12 370.5 a2.38 2.38 0 1 0 4.76 0 a2.38 2.38 0 1 0 -4.76 0z" fill="black"></path><path d="M1242.12 332.5 a2.38 2.38 0 1 0 4.76 0 a2.38 2.38 0 1 0 -4.76 0zM1204.12 218.5 a2.38 2.38 0 1 0 4.76 0 a2.38 2.38 0 1 0 -4.76 0z" fill="black"></path><path d="M102.12 446.5 a2.38 2.38 0 1 0 4.76 0 a2.38 2.38 0 1 0 -4.76 0zM45.12 503.5 a2.38 2.38 0 1 0 4.76 0 a2.38 2.38 0 1 0 -4.76 0z" fill="black"></path><path d="M463.12 66.5 a2.38 2.38 0 1 0 4.76 0 a2.38 2.38 0 1 0 -4.76 0zM501.12 85.5 a2.38 2.38 0 1 0 4.76 0 a2.38 2.38 0 1 0 -4.76 0z" fill="black"></path><path d="M767.12 332.5 a2.38 2.38 0 1 0 4.76 0 a2.38 2.38 0 1 0 -4.76 0zM729.12 332.5 a2.38 2.38 0 1 0 4.76 0 a2.38 2.38 0 1 0 -4.76 0z" fill="black"></path><path d="M672.12 9.5 a2.38 2.38 0 1 0 4.76 0 a2.38 2.38 0 1 0 -4.76 0zM577.12 9.5 a2.38 2.38 0 1 0 4.76 0 a2.38 2.38 0 1 0 -4.76 0z" fill="black"></path><path d="M1394.12 237.5 a2.38 2.38 0 1 0 4.76 0 a2.38 2.38 0 1 0 -4.76 0zM1299.12 237.5 a2.38 2.38 0 1 0 4.76 0 a2.38 2.38 0 1 0 -4.76 0z" fill="black"></path><path d="M444.12 161.5 a2.38 2.38 0 1 0 4.76 0 a2.38 2.38 0 1 0 -4.76 0zM444.12 28.5 a2.38 2.38 0 1 0 4.76 0 a2.38 2.38 0 1 0 -4.76 0z" fill="black"></path><path d="M311.12 313.5 a2.38 2.38 0 1 0 4.76 0 a2.38 2.38 0 1 0 -4.76 0zM387.12 332.5 a2.38 2.38 0 1 0 4.76 0 a2.38 2.38 0 1 0 -4.76 0z" fill="black"></path><path d="M1432.12 142.5 a2.38 2.38 0 1 0 4.76 0 a2.38 2.38 0 1 0 -4.76 0zM1394.12 161.5 a2.38 2.38 0 1 0 4.76 0 a2.38 2.38 0 1 0 -4.76 0z" fill="black"></path><path d="M235.12 427.5 a2.38 2.38 0 1 0 4.76 0 a2.38 2.38 0 1 0 -4.76 0zM197.12 389.5 a2.38 2.38 0 1 0 4.76 0 a2.38 2.38 0 1 0 -4.76 0z" fill="black"></path><path d="M406.12 218.5 a2.38 2.38 0 1 0 4.76 0 a2.38 2.38 0 1 0 -4.76 0zM425.12 28.5 a2.38 2.38 0 1 0 4.76 0 a2.38 2.38 0 1 0 -4.76 0z" fill="black"></path><path d="M159.12 256.5 a2.38 2.38 0 1 0 4.76 0 a2.38 2.38 0 1 0 -4.76 0zM102.12 332.5 a2.38 2.38 0 1 0 4.76 0 a2.38 2.38 0 1 0 -4.76 0z" fill="black"></path><path d="M786.12 104.5 a2.38 2.38 0 1 0 4.76 0 a2.38 2.38 0 1 0 -4.76 0zM786.12 161.5 a2.38 2.38 0 1 0 4.76 0 a2.38 2.38 0 1 0 -4.76 0z" fill="black"></path><path d="M1375.12 218.5 a2.38 2.38 0 1 0 4.76 0 a2.38 2.38 0 1 0 -4.76 0zM1432.12 351.5 a2.38 2.38 0 1 0 4.76 0 a2.38 2.38 0 1 0 -4.76 0z" fill="black"></path><path d="M501.12 408.5 a2.38 2.38 0 1 0 4.76 0 a2.38 2.38 0 1 0 -4.76 0zM558.12 332.5 a2.38 2.38 0 1 0 4.76 0 a2.38 2.38 0 1 0 -4.76 0z" fill="black"></path><path d="M330.12 199.5 a2.38 2.38 0 1 0 4.76 0 a2.38 2.38 0 1 0 -4.76 0zM406.12 256.5 a2.38 2.38 0 1 0 4.76 0 a2.38 2.38 0 1 0 -4.76 0z" fill="black"></path><path d="M1356.12 180.5 a2.38 2.38 0 1 0 4.76 0 a2.38 2.38 0 1 0 -4.76 0zM1394.12 199.5 a2.38 2.38 0 1 0 4.76 0 a2.38 2.38 0 1 0 -4.76 0z" fill="black"></path><path d="M1109.12 408.5 a2.38 2.38 0 1 0 4.76 0 a2.38 2.38 0 1 0 -4.76 0zM1166.12 484.5 a2.38 2.38 0 1 0 4.76 0 a2.38 2.38 0 1 0 -4.76 0z" fill="black"></path><path d="M976.12 85.5 a2.38 2.38 0 1 0 4.76 0 a2.38 2.38 0 1 0 -4.76 0zM919.12 28.5 a2.38 2.38 0 1 0 4.76 0 a2.38 2.38 0 1 0 -4.76 0z" fill="black"></path><path d="M26.12 218.5 a2.38 2.38 0 1 0 4.76 0 a2.38 2.38 0 1 0 -4.76 0zM26.12 180.5 a2.38 2.38 0 1 0 4.76 0 a2.38 2.38 0 1 0 -4.76 0z" fill="black"></path><path d="M292.12 408.5 a2.38 2.38 0 1 0 4.76 0 a2.38 2.38 0 1 0 -4.76 0zM292.12 370.5 a2.38 2.38 0 1 0 4.76 0 a2.38 2.38 0 1 0 -4.76 0z" fill="black"></path><path d="M425.12 161.5 a2.38 2.38 0 1 0 4.76 0 a2.38 2.38 0 1 0 -4.76 0zM482.12 275.5 a2.38 2.38 0 1 0 4.76 0 a2.38 2.38 0 1 0 -4.76 0z" fill="black"></path><path d="M995.12 66.5 a2.38 2.38 0 1 0 4.76 0 a2.38 2.38 0 1 0 -4.76 0zM976.12 28.5 a2.38 2.38 0 1 0 4.76 0 a2.38 2.38 0 1 0 -4.76 0z" fill="black"></path><path d="M1318.12 446.5 a2.38 2.38 0 1 0 4.76 0 a2.38 2.38 0 1 0 -4.76 0zM1299.12 560.5 a2.38 2.38 0 1 0 4.76 0 a2.38 2.38 0 1 0 -4.76 0z" fill="black"></path><path d="M843.12 294.5 a2.38 2.38 0 1 0 4.76 0 a2.38 2.38 0 1 0 -4.76 0zM748.12 256.5 a2.38 2.38 0 1 0 4.76 0 a2.38 2.38 0 1 0 -4.76 0z" fill="black"></path><path d="M178.12 541.5 a2.38 2.38 0 1 0 4.76 0 a2.38 2.38 0 1 0 -4.76 0zM330.12 370.5 a2.38 2.38 0 1 0 4.76 0 a2.38 2.38 0 1 0 -4.76 0z" fill="black"></path><path d="M121.12 104.5 a2.38 2.38 0 1 0 4.76 0 a2.38 2.38 0 1 0 -4.76 0zM102.12 47.5 a2.38 2.38 0 1 0 4.76 0 a2.38 2.38 0 1 0 -4.76 0z" fill="black"></path><path d="M1375.12 465.5 a2.38 2.38 0 1 0 4.76 0 a2.38 2.38 0 1 0 -4.76 0zM1299.12 427.5 a2.38 2.38 0 1 0 4.76 0 a2.38 2.38 0 1 0 -4.76 0z" fill="black"></path><path d="M881.12 142.5 a2.38 2.38 0 1 0 4.76 0 a2.38 2.38 0 1 0 -4.76 0zM805.12 161.5 a2.38 2.38 0 1 0 4.76 0 a2.38 2.38 0 1 0 -4.76 0z" fill="black"></path><path d="M786.12 446.5 a2.38 2.38 0 1 0 4.76 0 a2.38 2.38 0 1 0 -4.76 0zM824.12 446.5 a2.38 2.38 0 1 0 4.76 0 a2.38 2.38 0 1 0 -4.76 0z" fill="black"></path><path d="M596.12 408.5 a2.38 2.38 0 1 0 4.76 0 a2.38 2.38 0 1 0 -4.76 0zM653.12 370.5 a2.38 2.38 0 1 0 4.76 0 a2.38 2.38 0 1 0 -4.76 0z" fill="black"></path><path d="M64.12 47.5 a2.38 2.38 0 1 0 4.76 0 a2.38 2.38 0 1 0 -4.76 0zM64.12 313.5 a2.38 2.38 0 1 0 4.76 0 a2.38 2.38 0 1 0 -4.76 0z" fill="black"></path><path d="M729.12 180.5 a2.38 2.38 0 1 0 4.76 0 a2.38 2.38 0 1 0 -4.76 0zM748.12 218.5 a2.38 2.38 0 1 0 4.76 0 a2.38 2.38 0 1 0 -4.76 0z" fill="black"></path><path d="M121.12 408.5 a2.38 2.38 0 1 0 4.76 0 a2.38 2.38 0 1 0 -4.76 0zM121.12 351.5 a2.38 2.38 0 1 0 4.76 0 a2.38 2.38 0 1 0 -4.76 0z" fill="black"></path><path d="M729.12 351.5 a2.38 2.38 0 1 0 4.76 0 a2.38 2.38 0 1 0 -4.76 0zM862.12 408.5 a2.38 2.38 0 1 0 4.76 0 a2.38 2.38 0 1 0 -4.76 0z" fill="black"></path><path d="M862.12 123.5 a2.38 2.38 0 1 0 4.76 0 a2.38 2.38 0 1 0 -4.76 0zM805.12 123.5 a2.38 2.38 0 1 0 4.76 0 a2.38 2.38 0 1 0 -4.76 0z" fill="black"></path><path d="M881.12 294.5 a2.38 2.38 0 1 0 4.76 0 a2.38 2.38 0 1 0 -4.76 0zM1033.12 256.5 a2.38 2.38 0 1 0 4.76 0 a2.38 2.38 0 1 0 -4.76 0z" fill="black"></path><path d="M900.12 560.5 a2.38 2.38 0 1 0 4.76 0 a2.38 2.38 0 1 0 -4.76 0zM862.12 560.5 a2.38 2.38 0 1 0 4.76 0 a2.38 2.38 0 1 0 -4.76 0z" fill="black"></path><path d="M862.12 9.5 a2.38 2.38 0 1 0 4.76 0 a2.38 2.38 0 1 0 -4.76 0zM596.12 28.5 a2.38 2.38 0 1 0 4.76 0 a2.38 2.38 0 1 0 -4.76 0z" fill="black"></path><path d="M1375.12 332.5 a2.38 2.38 0 1 0 4.76 0 a2.38 2.38 0 1 0 -4.76 0zM1375.12 256.5 a2.38 2.38 0 1 0 4.76 0 a2.38 2.38 0 1 0 -4.76 0z" fill="black"></path><path d="M577.12 389.5 a2.38 2.38 0 1 0 4.76 0 a2.38 2.38 0 1 0 -4.76 0zM615.12 370.5 a2.38 2.38 0 1 0 4.76 0 a2.38 2.38 0 1 0 -4.76 0z" fill="black"></path><path d="M577.12 427.5 a2.38 2.38 0 1 0 4.76 0 a2.38 2.38 0 1 0 -4.76 0zM501.12 446.5 a2.38 2.38 0 1 0 4.76 0 a2.38 2.38 0 1 0 -4.76 0z" fill="black"></path><path d="M64.12 541.5 a2.38 2.38 0 1 0 4.76 0 a2.38 2.38 0 1 0 -4.76 0zM197.12 408.5 a2.38 2.38 0 1 0 4.76 0 a2.38 2.38 0 1 0 -4.76 0z" fill="black"></path><path d="M1166.12 370.5 a2.38 2.38 0 1 0 4.76 0 a2.38 2.38 0 1 0 -4.76 0zM1128.12 294.5 a2.38 2.38 0 1 0 4.76 0 a2.38 2.38 0 1 0 -4.76 0z" fill="black"></path><path d="M520.12 142.5 a2.38 2.38 0 1 0 4.76 0 a2.38 2.38 0 1 0 -4.76 0zM558.12 294.5 a2.38 2.38 0 1 0 4.76 0 a2.38 2.38 0 1 0 -4.76 0z" fill="black"></path><path d="M558.12 199.5 a2.38 2.38 0 1 0 4.76 0 a2.38 2.38 0 1 0 -4.76 0zM558.12 161.5 a2.38 2.38 0 1 0 4.76 0 a2.38 2.38 0 1 0 -4.76 0z" fill="black"></path><path d="M1185.12 370.5 a2.38 2.38 0 1 0 4.76 0 a2.38 2.38 0 1 0 -4.76 0zM1223.12 313.5 a2.38 2.38 0 1 0 4.76 0 a2.38 2.38 0 1 0 -4.76 0z" fill="black"></path><path d="M995.12 522.5 a2.38 2.38 0 1 0 4.76 0 a2.38 2.38 0 1 0 -4.76 0zM938.12 541.5 a2.38 2.38 0 1 0 4.76 0 a2.38 2.38 0 1 0 -4.76 0z" fill="black"></path><path d="M1204.12 237.5 a2.38 2.38 0 1 0 4.76 0 a2.38 2.38 0 1 0 -4.76 0zM1204.12 294.5 a2.38 2.38 0 1 0 4.76 0 a2.38 2.38 0 1 0 -4.76 0z" fill="black"></path><path d="M843.12 28.5 a2.38 2.38 0 1 0 4.76 0 a2.38 2.38 0 1 0 -4.76 0zM900.12 9.5 a2.38 2.38 0 1 0 4.76 0 a2.38 2.38 0 1 0 -4.76 0z" fill="black"></path><path d="M558.12 28.5 a2.38 2.38 0 1 0 4.76 0 a2.38 2.38 0 1 0 -4.76 0zM501.12 28.5 a2.38 2.38 0 1 0 4.76 0 a2.38 2.38 0 1 0 -4.76 0z" fill="black"></path><path d="M615.12 408.5 a2.38 2.38 0 1 0 4.76 0 a2.38 2.38 0 1 0 -4.76 0zM653.12 389.5 a2.38 2.38 0 1 0 4.76 0 a2.38 2.38 0 1 0 -4.76 0z" fill="black"></path><path d="M1033.12 313.5 a2.38 2.38 0 1 0 4.76 0 a2.38 2.38 0 1 0 -4.76 0zM976.12 389.5 a2.38 2.38 0 1 0 4.76 0 a2.38 2.38 0 1 0 -4.76 0z" fill="black"></path><path d="M1261.12 142.5 a2.38 2.38 0 1 0 4.76 0 a2.38 2.38 0 1 0 -4.76 0zM1166.12 85.5 a2.38 2.38 0 1 0 4.76 0 a2.38 2.38 0 1 0 -4.76 0z" fill="black"></path><path d="M843.12 484.5 a2.38 2.38 0 1 0 4.76 0 a2.38 2.38 0 1 0 -4.76 0zM824.12 522.5 a2.38 2.38 0 1 0 4.76 0 a2.38 2.38 0 1 0 -4.76 0z" fill="black"></path><path d="M1356.12 560.5 a2.38 2.38 0 1 0 4.76 0 a2.38 2.38 0 1 0 -4.76 0zM1337.12 446.5 a2.38 2.38 0 1 0 4.76 0 a2.38 2.38 0 1 0 -4.76 0z" fill="black"></path><path d="M64.12 180.5 a2.38 2.38 0 1 0 4.76 0 a2.38 2.38 0 1 0 -4.76 0zM64.12 66.5 a2.38 2.38 0 1 0 4.76 0 a2.38 2.38 0 1 0 -4.76 0z" fill="black"></path><path d="M843.12 275.5 a2.38 2.38 0 1 0 4.76 0 a2.38 2.38 0 1 0 -4.76 0zM767.12 256.5 a2.38 2.38 0 1 0 4.76 0 a2.38 2.38 0 1 0 -4.76 0z" fill="black"></path><path d="M45.12 446.5 a2.38 2.38 0 1 0 4.76 0 a2.38 2.38 0 1 0 -4.76 0zM7.12 465.5 a2.38 2.38 0 1 0 4.76 0 a2.38 2.38 0 1 0 -4.76 0z" fill="black"></path><path d="M1204.12 560.5 a2.38 2.38 0 1 0 4.76 0 a2.38 2.38 0 1 0 -4.76 0zM1071.12 560.5 a2.38 2.38 0 1 0 4.76 0 a2.38 2.38 0 1 0 -4.76 0z" fill="black"></path><path d="M1109.12 313.5 a2.38 2.38 0 1 0 4.76 0 a2.38 2.38 0 1 0 -4.76 0zM1166.12 465.5 a2.38 2.38 0 1 0 4.76 0 a2.38 2.38 0 1 0 -4.76 0z" fill="black"></path><path d="M1033.12 522.5 a2.38 2.38 0 1 0 4.76 0 a2.38 2.38 0 1 0 -4.76 0zM1071.12 465.5 a2.38 2.38 0 1 0 4.76 0 a2.38 2.38 0 1 0 -4.76 0z" fill="black"></path><path d="M1242.12 104.5 a2.38 2.38 0 1 0 4.76 0 a2.38 2.38 0 1 0 -4.76 0zM1185.12 142.5 a2.38 2.38 0 1 0 4.76 0 a2.38 2.38 0 1 0 -4.76 0z" fill="black"></path><path d="M482.12 142.5 a2.38 2.38 0 1 0 4.76 0 a2.38 2.38 0 1 0 -4.76 0zM501.12 180.5 a2.38 2.38 0 1 0 4.76 0 a2.38 2.38 0 1 0 -4.76 0z" fill="black"></path><path d="M900.12 275.5 a2.38 2.38 0 1 0 4.76 0 a2.38 2.38 0 1 0 -4.76 0zM843.12 256.5 a2.38 2.38 0 1 0 4.76 0 a2.38 2.38 0 1 0 -4.76 0z" fill="black"></path><path d="M7.12 123.5 a2.38 2.38 0 1 0 4.76 0 a2.38 2.38 0 1 0 -4.76 0zM7.12 161.5 a2.38 2.38 0 1 0 4.76 0 a2.38 2.38 0 1 0 -4.76 0z" fill="black"></path><path d="M1223.12 446.5 a2.38 2.38 0 1 0 4.76 0 a2.38 2.38 0 1 0 -4.76 0zM1242.12 408.5 a2.38 2.38 0 1 0 4.76 0 a2.38 2.38 0 1 0 -4.76 0z" fill="black"></path><path d="M862.12 142.5 a2.38 2.38 0 1 0 4.76 0 a2.38 2.38 0 1 0 -4.76 0zM805.12 142.5 a2.38 2.38 0 1 0 4.76 0 a2.38 2.38 0 1 0 -4.76 0z" fill="black"></path><path d="M862.12 256.5 a2.38 2.38 0 1 0 4.76 0 a2.38 2.38 0 1 0 -4.76 0zM957.12 313.5 a2.38 2.38 0 1 0 4.76 0 a2.38 2.38 0 1 0 -4.76 0z" fill="black"></path><path d="M254.12 332.5 a2.38 2.38 0 1 0 4.76 0 a2.38 2.38 0 1 0 -4.76 0zM292.12 332.5 a2.38 2.38 0 1 0 4.76 0 a2.38 2.38 0 1 0 -4.76 0z" fill="black"></path><path d="M748.12 427.5 a2.38 2.38 0 1 0 4.76 0 a2.38 2.38 0 1 0 -4.76 0zM729.12 370.5 a2.38 2.38 0 1 0 4.76 0 a2.38 2.38 0 1 0 -4.76 0z" fill="black"></path><path d="M1413.12 427.5 a2.38 2.38 0 1 0 4.76 0 a2.38 2.38 0 1 0 -4.76 0zM1413.12 560.5 a2.38 2.38 0 1 0 4.76 0 a2.38 2.38 0 1 0 -4.76 0z" fill="black"></path><path d="M1109.12 332.5 a2.38 2.38 0 1 0 4.76 0 a2.38 2.38 0 1 0 -4.76 0zM1109.12 427.5 a2.38 2.38 0 1 0 4.76 0 a2.38 2.38 0 1 0 -4.76 0z" fill="black"></path><path d="M1432.12 503.5 a2.38 2.38 0 1 0 4.76 0 a2.38 2.38 0 1 0 -4.76 0zM1432.12 560.5 a2.38 2.38 0 1 0 4.76 0 a2.38 2.38 0 1 0 -4.76 0z" fill="black"></path><path d="M159.12 142.5 a2.38 2.38 0 1 0 4.76 0 a2.38 2.38 0 1 0 -4.76 0zM216.12 180.5 a2.38 2.38 0 1 0 4.76 0 a2.38 2.38 0 1 0 -4.76 0z" fill="black"></path><path d="M121.12 237.5 a2.38 2.38 0 1 0 4.76 0 a2.38 2.38 0 1 0 -4.76 0zM102.12 313.5 a2.38 2.38 0 1 0 4.76 0 a2.38 2.38 0 1 0 -4.76 0z" fill="black"></path><path d="M1014.12 351.5 a2.38 2.38 0 1 0 4.76 0 a2.38 2.38 0 1 0 -4.76 0zM1014.12 389.5 a2.38 2.38 0 1 0 4.76 0 a2.38 2.38 0 1 0 -4.76 0z" fill="black"></path><path d="M1090.12 351.5 a2.38 2.38 0 1 0 4.76 0 a2.38 2.38 0 1 0 -4.76 0zM1090.12 408.5 a2.38 2.38 0 1 0 4.76 0 a2.38 2.38 0 1 0 -4.76 0z" fill="black"></path><path d="M463.12 522.5 a2.38 2.38 0 1 0 4.76 0 a2.38 2.38 0 1 0 -4.76 0zM444.12 465.5 a2.38 2.38 0 1 0 4.76 0 a2.38 2.38 0 1 0 -4.76 0z" fill="black"></path><path d="M463.12 218.5 a2.38 2.38 0 1 0 4.76 0 a2.38 2.38 0 1 0 -4.76 0zM425.12 218.5 a2.38 2.38 0 1 0 4.76 0 a2.38 2.38 0 1 0 -4.76 0z" fill="black"></path><path d="M1356.12 332.5 a2.38 2.38 0 1 0 4.76 0 a2.38 2.38 0 1 0 -4.76 0zM1318.12 256.5 a2.38 2.38 0 1 0 4.76 0 a2.38 2.38 0 1 0 -4.76 0z" fill="black"></path><path d="M444.12 484.5 a2.38 2.38 0 1 0 4.76 0 a2.38 2.38 0 1 0 -4.76 0zM501.12 484.5 a2.38 2.38 0 1 0 4.76 0 a2.38 2.38 0 1 0 -4.76 0z" fill="black"></path><path d="M140.12 541.5 a2.38 2.38 0 1 0 4.76 0 a2.38 2.38 0 1 0 -4.76 0zM102.12 522.5 a2.38 2.38 0 1 0 4.76 0 a2.38 2.38 0 1 0 -4.76 0z" fill="black"></path><path d="M235.12 9.5 a2.38 2.38 0 1 0 4.76 0 a2.38 2.38 0 1 0 -4.76 0zM273.12 66.5 a2.38 2.38 0 1 0 4.76 0 a2.38 2.38 0 1 0 -4.76 0z" fill="black"></path><path d="M197.12 427.5 a2.38 2.38 0 1 0 4.76 0 a2.38 2.38 0 1 0 -4.76 0zM254.12 484.5 a2.38 2.38 0 1 0 4.76 0 a2.38 2.38 0 1 0 -4.76 0z" fill="black"></path><path d="M577.12 541.5 a2.38 2.38 0 1 0 4.76 0 a2.38 2.38 0 1 0 -4.76 0zM539.12 503.5 a2.38 2.38 0 1 0 4.76 0 a2.38 2.38 0 1 0 -4.76 0z" fill="black"></path><path d="M1394.12 294.5 a2.38 2.38 0 1 0 4.76 0 a2.38 2.38 0 1 0 -4.76 0zM1413.12 332.5 a2.38 2.38 0 1 0 4.76 0 a2.38 2.38 0 1 0 -4.76 0z" fill="black"></path><path d="M596.12 218.5 a2.38 2.38 0 1 0 4.76 0 a2.38 2.38 0 1 0 -4.76 0zM558.12 256.5 a2.38 2.38 0 1 0 4.76 0 a2.38 2.38 0 1 0 -4.76 0z" fill="black"></path><path d="M1223.12 161.5 a2.38 2.38 0 1 0 4.76 0 a2.38 2.38 0 1 0 -4.76 0zM1242.12 123.5 a2.38 2.38 0 1 0 4.76 0 a2.38 2.38 0 1 0 -4.76 0z" fill="black"></path><path d="M102.12 541.5 a2.38 2.38 0 1 0 4.76 0 a2.38 2.38 0 1 0 -4.76 0zM159.12 560.5 a2.38 2.38 0 1 0 4.76 0 a2.38 2.38 0 1 0 -4.76 0z" fill="black"></path><path d="M653.12 161.5 a2.38 2.38 0 1 0 4.76 0 a2.38 2.38 0 1 0 -4.76 0zM672.12 123.5 a2.38 2.38 0 1 0 4.76 0 a2.38 2.38 0 1 0 -4.76 0z" fill="black"></path><path d="M558.12 85.5 a2.38 2.38 0 1 0 4.76 0 a2.38 2.38 0 1 0 -4.76 0zM520.12 66.5 a2.38 2.38 0 1 0 4.76 0 a2.38 2.38 0 1 0 -4.76 0z" fill="black"></path><path d="M444.12 503.5 a2.38 2.38 0 1 0 4.76 0 a2.38 2.38 0 1 0 -4.76 0zM520.12 522.5 a2.38 2.38 0 1 0 4.76 0 a2.38 2.38 0 1 0 -4.76 0z" fill="black"></path><path d="M102.12 218.5 a2.38 2.38 0 1 0 4.76 0 a2.38 2.38 0 1 0 -4.76 0zM102.12 294.5 a2.38 2.38 0 1 0 4.76 0 a2.38 2.38 0 1 0 -4.76 0z" fill="black"></path><path d="M197.12 123.5 a2.38 2.38 0 1 0 4.76 0 a2.38 2.38 0 1 0 -4.76 0zM197.12 85.5 a2.38 2.38 0 1 0 4.76 0 a2.38 2.38 0 1 0 -4.76 0z" fill="black"></path><path d="M976.12 256.5 a2.38 2.38 0 1 0 4.76 0 a2.38 2.38 0 1 0 -4.76 0zM1014.12 256.5 a2.38 2.38 0 1 0 4.76 0 a2.38 2.38 0 1 0 -4.76 0z" fill="black"></path><path d="M729.12 28.5 a2.38 2.38 0 1 0 4.76 0 a2.38 2.38 0 1 0 -4.76 0zM672.12 47.5 a2.38 2.38 0 1 0 4.76 0 a2.38 2.38 0 1 0 -4.76 0z" fill="black"></path><path d="M1242.12 47.5 a2.38 2.38 0 1 0 4.76 0 a2.38 2.38 0 1 0 -4.76 0zM1280.12 47.5 a2.38 2.38 0 1 0 4.76 0 a2.38 2.38 0 1 0 -4.76 0z" fill="black"></path><path d="M615.12 427.5 a2.38 2.38 0 1 0 4.76 0 a2.38 2.38 0 1 0 -4.76 0zM577.12 446.5 a2.38 2.38 0 1 0 4.76 0 a2.38 2.38 0 1 0 -4.76 0z" fill="black"></path><path d="M1432.12 465.5 a2.38 2.38 0 1 0 4.76 0 a2.38 2.38 0 1 0 -4.76 0zM1432.12 427.5 a2.38 2.38 0 1 0 4.76 0 a2.38 2.38 0 1 0 -4.76 0z" fill="black"></path><path d="M1204.12 161.5 a2.38 2.38 0 1 0 4.76 0 a2.38 2.38 0 1 0 -4.76 0zM1223.12 123.5 a2.38 2.38 0 1 0 4.76 0 a2.38 2.38 0 1 0 -4.76 0z" fill="black"></path><path d="M349.12 313.5 a2.38 2.38 0 1 0 4.76 0 a2.38 2.38 0 1 0 -4.76 0zM330.12 275.5 a2.38 2.38 0 1 0 4.76 0 a2.38 2.38 0 1 0 -4.76 0z" fill="black"></path><path d="M1128.12 408.5 a2.38 2.38 0 1 0 4.76 0 a2.38 2.38 0 1 0 -4.76 0zM1128.12 351.5 a2.38 2.38 0 1 0 4.76 0 a2.38 2.38 0 1 0 -4.76 0z" fill="black"></path><path d="M995.12 541.5 a2.38 2.38 0 1 0 4.76 0 a2.38 2.38 0 1 0 -4.76 0zM1052.12 541.5 a2.38 2.38 0 1 0 4.76 0 a2.38 2.38 0 1 0 -4.76 0z" fill="black"></path><path d="M406.12 142.5 a2.38 2.38 0 1 0 4.76 0 a2.38 2.38 0 1 0 -4.76 0zM387.12 180.5 a2.38 2.38 0 1 0 4.76 0 a2.38 2.38 0 1 0 -4.76 0z" fill="black"></path><path d="M140.12 123.5 a2.38 2.38 0 1 0 4.76 0 a2.38 2.38 0 1 0 -4.76 0zM102.12 123.5 a2.38 2.38 0 1 0 4.76 0 a2.38 2.38 0 1 0 -4.76 0z" fill="black"></path><path d="M919.12 522.5 a2.38 2.38 0 1 0 4.76 0 a2.38 2.38 0 1 0 -4.76 0zM881.12 541.5 a2.38 2.38 0 1 0 4.76 0 a2.38 2.38 0 1 0 -4.76 0z" fill="black"></path><path d="M1299.12 218.5 a2.38 2.38 0 1 0 4.76 0 a2.38 2.38 0 1 0 -4.76 0zM1375.12 199.5 a2.38 2.38 0 1 0 4.76 0 a2.38 2.38 0 1 0 -4.76 0z" fill="black"></path><path d="M729.12 522.5 a2.38 2.38 0 1 0 4.76 0 a2.38 2.38 0 1 0 -4.76 0zM691.12 503.5 a2.38 2.38 0 1 0 4.76 0 a2.38 2.38 0 1 0 -4.76 0z" fill="black"></path><path d="M729.12 446.5 a2.38 2.38 0 1 0 4.76 0 a2.38 2.38 0 1 0 -4.76 0zM767.12 446.5 a2.38 2.38 0 1 0 4.76 0 a2.38 2.38 0 1 0 -4.76 0z" fill="black"></path><path d="M900.12 199.5 a2.38 2.38 0 1 0 4.76 0 a2.38 2.38 0 1 0 -4.76 0zM957.12 218.5 a2.38 2.38 0 1 0 4.76 0 a2.38 2.38 0 1 0 -4.76 0z" fill="black"></path><path d="M235.12 446.5 a2.38 2.38 0 1 0 4.76 0 a2.38 2.38 0 1 0 -4.76 0zM216.12 484.5 a2.38 2.38 0 1 0 4.76 0 a2.38 2.38 0 1 0 -4.76 0z" fill="black"></path><path d="M1090.12 560.5 a2.38 2.38 0 1 0 4.76 0 a2.38 2.38 0 1 0 -4.76 0zM1147.12 541.5 a2.38 2.38 0 1 0 4.76 0 a2.38 2.38 0 1 0 -4.76 0z" fill="black"></path><path d="M482.12 85.5 a2.38 2.38 0 1 0 4.76 0 a2.38 2.38 0 1 0 -4.76 0zM463.12 123.5 a2.38 2.38 0 1 0 4.76 0 a2.38 2.38 0 1 0 -4.76 0z" fill="black"></path><path d="M577.12 408.5 a2.38 2.38 0 1 0 4.76 0 a2.38 2.38 0 1 0 -4.76 0zM520.12 427.5 a2.38 2.38 0 1 0 4.76 0 a2.38 2.38 0 1 0 -4.76 0z" fill="black"></path><path d="M1109.12 560.5 a2.38 2.38 0 1 0 4.76 0 a2.38 2.38 0 1 0 -4.76 0zM1147.12 560.5 a2.38 2.38 0 1 0 4.76 0 a2.38 2.38 0 1 0 -4.76 0z" fill="black"></path><path d="M273.12 47.5 a2.38 2.38 0 1 0 4.76 0 a2.38 2.38 0 1 0 -4.76 0zM273.12 9.5 a2.38 2.38 0 1 0 4.76 0 a2.38 2.38 0 1 0 -4.76 0z" fill="black"></path><path d="M26.12 275.5 a2.38 2.38 0 1 0 4.76 0 a2.38 2.38 0 1 0 -4.76 0zM26.12 237.5 a2.38 2.38 0 1 0 4.76 0 a2.38 2.38 0 1 0 -4.76 0z" fill="black"></path><path d="M387.12 142.5 a2.38 2.38 0 1 0 4.76 0 a2.38 2.38 0 1 0 -4.76 0zM387.12 104.5 a2.38 2.38 0 1 0 4.76 0 a2.38 2.38 0 1 0 -4.76 0z" fill="black"></path><path d="M425.12 66.5 a2.38 2.38 0 1 0 4.76 0 a2.38 2.38 0 1 0 -4.76 0zM425.12 123.5 a2.38 2.38 0 1 0 4.76 0 a2.38 2.38 0 1 0 -4.76 0z" fill="black"></path></mask></defs></svg>